<svg width="86" height="23" viewBox="0 0 86 23" fill="none" xmlns="http://www.w3.org/2000/svg">
<path d="M1.4457 22C1.0657 22 0.875703 21.75 0.875703 21.25C0.875703 20.87 1.0057 20.57 1.2657 20.35C1.5257 20.11 1.9557 19.92 2.5557 19.78L3.1557 19.63V3.52L2.5557 3.37C1.9557 3.21 1.5257 3.02 1.2657 2.8C1.0057 2.58 0.875703 2.28 0.875703 1.9C0.875703 1.4 1.0657 1.15 1.4457 1.15H11.1957C13.4557 1.15 15.1857 1.65 16.3857 2.65C17.6057 3.65 18.2157 5.02 18.2157 6.76C18.2157 7.72 17.9557 8.58 17.4357 9.34C16.9157 10.08 16.1857 10.64 15.2457 11.02V11.14C16.5657 11.52 17.5857 12.16 18.3057 13.06C19.0257 13.94 19.3857 14.98 19.3857 16.18C19.3857 18.02 18.7457 19.45 17.4657 20.47C16.1857 21.49 14.4657 22 12.3057 22H1.4457ZM11.2257 10.15C12.2257 10.15 13.0157 9.85 13.5957 9.25C14.1757 8.63 14.4657 7.83 14.4657 6.85C14.4657 5.83 14.1657 5.02 13.5657 4.42C12.9657 3.8 12.1157 3.49 11.0157 3.49H6.9057V10.15H11.2257ZM11.7957 19.66C13.0557 19.66 14.0057 19.35 14.6457 18.73C15.3057 18.11 15.6357 17.24 15.6357 16.12C15.6357 15 15.3057 14.11 14.6457 13.45C14.0057 12.79 13.0857 12.46 11.8857 12.46H6.9057V19.66H11.7957ZM29.6089 22.42C28.1489 22.42 26.8289 22.13 25.6489 21.55C24.4889 20.97 23.5689 20.11 22.8889 18.97C22.2289 17.83 21.8989 16.45 21.8989 14.83C21.8989 13.19 22.2089 11.78 22.8289 10.6C23.4689 9.42 24.3389 8.52 25.4389 7.9C26.5589 7.28 27.8289 6.97 29.2489 6.97C30.5689 6.97 31.7289 7.23 32.7289 7.75C33.7489 8.27 34.5389 9.01 35.0989 9.97C35.6789 10.93 35.9689 12.05 35.9689 13.33C35.9689 13.69 35.9189 14.09 35.8189 14.53C35.7189 14.97 35.5889 15.34 35.4289 15.64H25.4389C25.4389 17.16 25.8589 18.31 26.6989 19.09C27.5589 19.87 28.5889 20.26 29.7889 20.26C30.4889 20.26 31.0989 20.18 31.6189 20.02C32.1589 19.84 32.7589 19.56 33.4189 19.18C33.4989 19.14 33.6289 19.07 33.8089 18.97C34.0089 18.85 34.1689 18.79 34.2889 18.79C34.5489 18.79 34.7689 18.89 34.9489 19.09C35.1289 19.29 35.2189 19.54 35.2189 19.84C35.2189 20.12 35.1289 20.37 34.9489 20.59C34.7689 20.81 34.4789 21.04 34.0789 21.28C32.7589 22.04 31.2689 22.42 29.6089 22.42ZM32.3089 13.48C32.4089 13.22 32.4589 12.92 32.4589 12.58C32.4589 11.5 32.1689 10.66 31.5889 10.06C31.0089 9.44 30.2189 9.13 29.2189 9.13C28.1789 9.13 27.3089 9.52 26.6089 10.3C25.9089 11.08 25.5189 12.14 25.4389 13.48H32.3089ZM38.5348 22C38.0748 22 37.8448 21.72 37.8448 21.16C37.8448 20.36 38.3748 19.96 39.4348 19.96H39.9148V2.74H38.5348C38.0748 2.74 37.8448 2.46 37.8448 1.9C37.8448 1.5 37.9848 1.2 38.2648 0.999999C38.5448 0.799999 38.9348 0.699999 39.4348 0.699999H43.4248V19.96L44.6248 20.44C45.0248 20.62 45.3048 20.79 45.4648 20.95C45.6248 21.09 45.7048 21.27 45.7048 21.49C45.7048 21.83 45.5548 22 45.2548 22H38.5348ZM51.1679 5.14C50.5079 5.14 49.9579 4.93 49.5179 4.51C49.0779 4.09 48.8579 3.53 48.8579 2.83C48.8579 2.13 49.0779 1.57 49.5179 1.15C49.9579 0.729999 50.5079 0.519999 51.1679 0.519999C51.8279 0.519999 52.3779 0.729999 52.8179 1.15C53.2779 1.57 53.5079 2.13 53.5079 2.83C53.5079 3.53 53.2779 4.09 52.8179 4.51C52.3779 4.93 51.8279 5.14 51.1679 5.14ZM48.1079 22C47.6479 22 47.4179 21.72 47.4179 21.16C47.4179 20.36 47.9479 19.96 49.0079 19.96H49.4879V9.31H48.1079C47.6479 9.31 47.4179 9.03 47.4179 8.47C47.4179 8.07 47.5579 7.77 47.8379 7.57C48.1179 7.37 48.5079 7.27 49.0079 7.27H52.9979V19.96L54.1979 20.44C54.5979 20.62 54.8779 20.79 55.0379 20.95C55.1979 21.09 55.2779 21.27 55.2779 21.49C55.2779 21.83 55.1279 22 54.8279 22H48.1079ZM64.3843 22.42C62.9243 22.42 61.6043 22.13 60.4243 21.55C59.2643 20.97 58.3443 20.11 57.6643 18.97C57.0043 17.83 56.6743 16.45 56.6743 14.83C56.6743 13.19 56.9843 11.78 57.6043 10.6C58.2443 9.42 59.1143 8.52 60.2143 7.9C61.3343 7.28 62.6043 6.97 64.0243 6.97C65.3443 6.97 66.5043 7.23 67.5043 7.75C68.5243 8.27 69.3143 9.01 69.8743 9.97C70.4543 10.93 70.7443 12.05 70.7443 13.33C70.7443 13.69 70.6943 14.09 70.5943 14.53C70.4943 14.97 70.3643 15.34 70.2043 15.64H60.2143C60.2143 17.16 60.6343 18.31 61.4743 19.09C62.3343 19.87 63.3643 20.26 64.5643 20.26C65.2643 20.26 65.8743 20.18 66.3943 20.02C66.9343 19.84 67.5343 19.56 68.1943 19.18C68.2743 19.14 68.4043 19.07 68.5843 18.97C68.7843 18.85 68.9443 18.79 69.0643 18.79C69.3243 18.79 69.5443 18.89 69.7243 19.09C69.9043 19.29 69.9943 19.54 69.9943 19.84C69.9943 20.12 69.9043 20.37 69.7243 20.59C69.5443 20.81 69.2543 21.04 68.8543 21.28C67.5343 22.04 66.0443 22.42 64.3843 22.42ZM67.0843 13.48C67.1843 13.22 67.2343 12.92 67.2343 12.58C67.2343 11.5 66.9443 10.66 66.3643 10.06C65.7843 9.44 64.9943 9.13 63.9943 9.13C62.9543 9.13 62.0843 9.52 61.3843 10.3C60.6843 11.08 60.2943 12.14 60.2143 13.48H67.0843ZM73.7797 22C73.3197 22 73.0897 21.72 73.0897 21.16C73.0897 20.36 73.6197 19.96 74.6797 19.96H75.1597V9.58H73.5697C73.3297 9.58 73.1397 9.5 72.9997 9.34C72.8797 9.18 72.8197 8.96 72.8197 8.68C72.8197 8.26 72.9597 7.94 73.2397 7.72C73.5397 7.5 73.9297 7.39 74.4097 7.39H75.1597V5.5C75.1597 3.82 75.6497 2.55 76.6297 1.69C77.6297 0.809999 78.8997 0.37 80.4397 0.37C81.4797 0.37 82.4497 0.529999 83.3497 0.849999C84.2497 1.15 84.9997 1.56 85.5997 2.08V5.05C85.5997 5.21 85.5397 5.35 85.4197 5.47C85.3197 5.57 85.1597 5.62 84.9397 5.62C84.6397 5.62 84.3997 5.53 84.2197 5.35C84.0597 5.15 83.9197 4.85 83.7997 4.45L83.4697 3.16C82.8097 2.76 82.0797 2.56 81.2797 2.56C80.4997 2.56 79.8697 2.8 79.3897 3.28C78.9097 3.74 78.6697 4.43 78.6697 5.35V7.39H82.6597C83.0197 7.39 83.1997 7.58 83.1997 7.96C83.1997 8.34 83.0497 8.64 82.7497 8.86C82.4497 9.08 81.9797 9.23 81.3397 9.31L78.6697 9.58V19.96L79.8697 20.44C80.2497 20.6 80.5197 20.76 80.6797 20.92C80.8597 21.06 80.9497 21.25 80.9497 21.49C80.9497 21.83 80.7997 22 80.4997 22H73.7797Z" fill="#1E1E1E"/>
</svg>
