<svg width="143" height="23" viewBox="0 0 143 23" fill="none" xmlns="http://www.w3.org/2000/svg">
<path d="M10.9359 22.42C8.9759 22.42 7.2059 22.01 5.6259 21.19C4.0459 20.37 2.7959 19.14 1.8759 17.5C0.955899 15.86 0.495899 13.87 0.495899 11.53C0.495899 9.23 0.955899 7.27 1.8759 5.65C2.8159 4.01 4.0459 2.78 5.5659 1.96C7.1059 1.14 8.7859 0.729998 10.6059 0.729998C12.1059 0.729998 13.4559 0.939999 14.6559 1.36C15.8759 1.78 16.8959 2.33 17.7159 3.01V7C17.7159 7.44 17.4959 7.66 17.0559 7.66C16.7359 7.66 16.4859 7.55 16.3059 7.33C16.1259 7.09 15.9659 6.7 15.8259 6.16L15.2559 4.09C14.8359 3.83 14.2759 3.61 13.5759 3.43C12.8759 3.23 12.1059 3.13 11.2659 3.13C9.9059 3.13 8.6959 3.45 7.6359 4.09C6.5959 4.73 5.7759 5.68 5.1759 6.94C4.5959 8.2 4.3059 9.73 4.3059 11.53C4.3059 13.35 4.6159 14.9 5.2359 16.18C5.8559 17.44 6.7059 18.4 7.7859 19.06C8.8659 19.7 10.0859 20.02 11.4459 20.02C12.4059 20.02 13.2259 19.94 13.9059 19.78C14.5859 19.62 15.2559 19.31 15.9159 18.85C16.4159 18.51 16.7659 18.34 16.9659 18.34C17.2259 18.34 17.4559 18.45 17.6559 18.67C17.8559 18.87 17.9559 19.12 17.9559 19.42C17.9559 19.96 17.6159 20.46 16.9359 20.92C16.2959 21.34 15.4659 21.7 14.4459 22C13.4459 22.28 12.2759 22.42 10.9359 22.42ZM21.345 22C20.885 22 20.655 21.72 20.655 21.16C20.655 20.36 21.185 19.96 22.245 19.96H22.725V2.74H21.345C20.885 2.74 20.655 2.46 20.655 1.9C20.655 1.5 20.795 1.2 21.075 0.999999C21.355 0.799999 21.745 0.699999 22.245 0.699999H26.115V9.16H26.235C27.875 7.7 29.555 6.97 31.275 6.97C32.715 6.97 33.895 7.39 34.815 8.23C35.755 9.05 36.225 10.18 36.225 11.62V19.96L37.395 20.44C37.795 20.62 38.075 20.79 38.235 20.95C38.395 21.09 38.475 21.27 38.475 21.49C38.475 21.83 38.325 22 38.025 22H31.305C30.845 22 30.615 21.72 30.615 21.16C30.615 20.36 31.145 19.96 32.205 19.96H32.715V11.86C32.715 11.04 32.495 10.39 32.055 9.91C31.615 9.43 30.965 9.19 30.105 9.19C29.445 9.19 28.775 9.38 28.095 9.76C27.415 10.12 26.795 10.6 26.235 11.2V19.96L27.435 20.44C27.835 20.62 28.115 20.79 28.275 20.95C28.435 21.09 28.515 21.27 28.515 21.49C28.515 21.83 28.365 22 28.065 22H21.345ZM44.7239 22.42C43.4439 22.42 42.3439 22.06 41.4239 21.34C40.5239 20.6 40.0739 19.56 40.0739 18.22C40.0739 16.7 40.6139 15.59 41.6939 14.89C42.7739 14.19 44.1739 13.71 45.8939 13.45L49.4339 12.91V11.83C49.4339 10.99 49.1739 10.33 48.6539 9.85C48.1339 9.37 47.4139 9.13 46.4939 9.13C45.9339 9.13 45.3139 9.22 44.6339 9.4C43.9739 9.58 43.4539 9.79 43.0739 10.03L42.7739 11.26C42.6739 11.66 42.5239 11.96 42.3239 12.16C42.1439 12.34 41.9039 12.43 41.6039 12.43C41.3839 12.43 41.2139 12.38 41.0939 12.28C40.9939 12.16 40.9439 12.02 40.9439 11.86V8.65C41.8039 8.15 42.7839 7.75 43.8839 7.45C44.9839 7.13 46.0539 6.97 47.0939 6.97C48.8339 6.97 50.2439 7.4 51.3239 8.26C52.4039 9.1 52.9439 10.32 52.9439 11.92V20.05L53.9039 20.44C54.3039 20.62 54.5839 20.79 54.7439 20.95C54.9039 21.09 54.9839 21.27 54.9839 21.49C54.9839 21.83 54.8339 22 54.5339 22H49.4939V20.35H49.3739C48.8539 20.97 48.1739 21.47 47.3339 21.85C46.5139 22.23 45.6439 22.42 44.7239 22.42ZM45.8339 20.14C46.4539 20.14 47.0339 19.99 47.5739 19.69C48.1339 19.39 48.5839 19 48.9239 18.52C49.2639 18.02 49.4339 17.49 49.4339 16.93V14.98L46.5539 15.43C44.5739 15.77 43.5839 16.65 43.5839 18.07C43.5839 18.71 43.7839 19.22 44.1839 19.6C44.5839 19.96 45.1339 20.14 45.8339 20.14ZM57.3487 22C56.8887 22 56.6587 21.72 56.6587 21.16C56.6587 20.36 57.1887 19.96 58.2487 19.96H58.7287V9.31H57.3487C56.8887 9.31 56.6587 9.03 56.6587 8.47C56.6587 8.07 56.7987 7.77 57.0787 7.57C57.3587 7.37 57.7487 7.27 58.2487 7.27H62.0887V10.3H62.1787C62.8987 9.36 63.7187 8.57 64.6387 7.93C65.5587 7.29 66.4387 6.97 67.2787 6.97C67.8587 6.97 68.3087 7.13 68.6287 7.45C68.9487 7.77 69.1087 8.18 69.1087 8.68C69.1087 8.98 69.0487 9.28 68.9287 9.58C68.8287 9.86 68.6887 10.09 68.5087 10.27C66.2087 10.27 64.1187 11.03 62.2387 12.55V19.96L63.4387 20.44C63.8387 20.62 64.1187 20.79 64.2787 20.95C64.4387 21.09 64.5187 21.27 64.5187 21.49C64.5187 21.83 64.3687 22 64.0687 22H57.3487ZM74.7239 22.42C73.4439 22.42 72.3439 22.06 71.4239 21.34C70.5239 20.6 70.0739 19.56 70.0739 18.22C70.0739 16.7 70.6139 15.59 71.6939 14.89C72.7739 14.19 74.1739 13.71 75.8939 13.45L79.4339 12.91V11.83C79.4339 10.99 79.1739 10.33 78.6539 9.85C78.1339 9.37 77.4139 9.13 76.4939 9.13C75.9339 9.13 75.3139 9.22 74.6339 9.4C73.9739 9.58 73.4539 9.79 73.0739 10.03L72.7739 11.26C72.6739 11.66 72.5239 11.96 72.3239 12.16C72.1439 12.34 71.9039 12.43 71.6039 12.43C71.3839 12.43 71.2139 12.38 71.0939 12.28C70.9939 12.16 70.9439 12.02 70.9439 11.86V8.65C71.8039 8.15 72.7839 7.75 73.8839 7.45C74.9839 7.13 76.0539 6.97 77.0939 6.97C78.8339 6.97 80.2439 7.4 81.3239 8.26C82.4039 9.1 82.9439 10.32 82.9439 11.92V20.05L83.9039 20.44C84.3039 20.62 84.5839 20.79 84.7439 20.95C84.9039 21.09 84.9839 21.27 84.9839 21.49C84.9839 21.83 84.8339 22 84.5339 22H79.4939V20.35H79.3739C78.8539 20.97 78.1739 21.47 77.3339 21.85C76.5139 22.23 75.6439 22.42 74.7239 22.42ZM75.8339 20.14C76.4539 20.14 77.0339 19.99 77.5739 19.69C78.1339 19.39 78.5839 19 78.9239 18.52C79.2639 18.02 79.4339 17.49 79.4339 16.93V14.98L76.5539 15.43C74.5739 15.77 73.5839 16.65 73.5839 18.07C73.5839 18.71 73.7839 19.22 74.1839 19.6C74.5839 19.96 75.1339 20.14 75.8339 20.14ZM93.6321 22.42C92.1121 22.42 90.7621 22.11 89.5821 21.49C88.4021 20.87 87.4821 19.98 86.8221 18.82C86.1621 17.64 85.8321 16.25 85.8321 14.65C85.8321 13.01 86.1621 11.61 86.8221 10.45C87.5021 9.29 88.4021 8.42 89.5221 7.84C90.6421 7.26 91.8821 6.97 93.2421 6.97C94.3221 6.97 95.3421 7.15 96.3021 7.51C97.2821 7.87 98.0621 8.3 98.6421 8.8V11.92C98.6421 12.3 98.4121 12.49 97.9521 12.49C97.3721 12.49 97.0021 12.11 96.8421 11.35L96.5121 9.94C96.1721 9.7 95.7521 9.51 95.2521 9.37C94.7721 9.23 94.2521 9.16 93.6921 9.16C92.4121 9.16 91.3621 9.63 90.5421 10.57C89.7421 11.51 89.3421 12.88 89.3421 14.68C89.3421 16.5 89.7621 17.89 90.6021 18.85C91.4421 19.79 92.5421 20.26 93.9021 20.26C94.5621 20.26 95.1421 20.18 95.6421 20.02C96.1621 19.84 96.6821 19.56 97.2021 19.18C97.5221 18.94 97.7921 18.82 98.0121 18.82C98.2521 18.82 98.4521 18.92 98.6121 19.12C98.7921 19.3 98.8821 19.54 98.8821 19.84C98.8821 20.38 98.4821 20.89 97.6821 21.37C96.5221 22.07 95.1721 22.42 93.6321 22.42ZM107.943 22.42C106.663 22.42 105.593 22.05 104.733 21.31C103.893 20.57 103.473 19.54 103.473 18.22V9.58H101.433C101.193 9.58 101.003 9.5 100.863 9.34C100.743 9.18 100.683 8.96 100.683 8.68C100.683 8.26 100.823 7.94 101.103 7.72C101.403 7.5 101.793 7.39 102.273 7.39H103.533L104.073 4.03H106.983V7.39H111.603C111.743 7.39 111.853 7.43 111.933 7.51C112.033 7.59 112.083 7.7 112.083 7.84C112.083 8.16 111.953 8.41 111.693 8.59C111.453 8.75 111.043 8.89 110.463 9.01L106.983 9.58V18.43C106.983 19.03 107.133 19.48 107.433 19.78C107.753 20.08 108.183 20.23 108.723 20.23C109.363 20.23 109.963 20.01 110.523 19.57C110.583 19.53 110.683 19.45 110.823 19.33C110.983 19.19 111.153 19.12 111.333 19.12C111.593 19.12 111.803 19.21 111.963 19.39C112.143 19.55 112.233 19.77 112.233 20.05C112.233 20.55 111.843 21.05 111.063 21.55C110.143 22.13 109.103 22.42 107.943 22.42ZM121.581 22.42C120.121 22.42 118.801 22.13 117.621 21.55C116.461 20.97 115.541 20.11 114.861 18.97C114.201 17.83 113.871 16.45 113.871 14.83C113.871 13.19 114.181 11.78 114.801 10.6C115.441 9.42 116.311 8.52 117.411 7.9C118.531 7.28 119.801 6.97 121.221 6.97C122.541 6.97 123.701 7.23 124.701 7.75C125.721 8.27 126.511 9.01 127.071 9.97C127.651 10.93 127.941 12.05 127.941 13.33C127.941 13.69 127.891 14.09 127.791 14.53C127.691 14.97 127.561 15.34 127.401 15.64H117.411C117.411 17.16 117.831 18.31 118.671 19.09C119.531 19.87 120.561 20.26 121.761 20.26C122.461 20.26 123.071 20.18 123.591 20.02C124.131 19.84 124.731 19.56 125.391 19.18C125.471 19.14 125.601 19.07 125.781 18.97C125.981 18.85 126.141 18.79 126.261 18.79C126.521 18.79 126.741 18.89 126.921 19.09C127.101 19.29 127.191 19.54 127.191 19.84C127.191 20.12 127.101 20.37 126.921 20.59C126.741 20.81 126.451 21.04 126.051 21.28C124.731 22.04 123.241 22.42 121.581 22.42ZM124.281 13.48C124.381 13.22 124.431 12.92 124.431 12.58C124.431 11.5 124.141 10.66 123.561 10.06C122.981 9.44 122.191 9.13 121.191 9.13C120.151 9.13 119.281 9.52 118.581 10.3C117.881 11.08 117.491 12.14 117.411 13.48H124.281ZM130.796 22C130.336 22 130.106 21.72 130.106 21.16C130.106 20.36 130.636 19.96 131.696 19.96H132.176V9.31H130.796C130.336 9.31 130.106 9.03 130.106 8.47C130.106 8.07 130.246 7.77 130.526 7.57C130.806 7.37 131.196 7.27 131.696 7.27H135.536V10.3H135.626C136.346 9.36 137.166 8.57 138.086 7.93C139.006 7.29 139.886 6.97 140.726 6.97C141.306 6.97 141.756 7.13 142.076 7.45C142.396 7.77 142.556 8.18 142.556 8.68C142.556 8.98 142.496 9.28 142.376 9.58C142.276 9.86 142.136 10.09 141.956 10.27C139.656 10.27 137.566 11.03 135.686 12.55V19.96L136.886 20.44C137.286 20.62 137.566 20.79 137.726 20.95C137.886 21.09 137.966 21.27 137.966 21.49C137.966 21.83 137.816 22 137.516 22H130.796Z" fill="#1E1E1E"/>
</svg>
