<svg width="180" height="29" viewBox="0 0 180 29" fill="none" xmlns="http://www.w3.org/2000/svg">
<path d="M11.0814 22.42C9.12141 22.42 7.35141 22.01 5.77141 21.19C4.19141 20.37 2.94141 19.14 2.02141 17.5C1.10141 15.86 0.641406 13.87 0.641406 11.53C0.641406 9.23 1.10141 7.27 2.02141 5.65C2.96141 4.01 4.19141 2.78 5.71141 1.96C7.25141 1.14 8.93141 0.729998 10.7514 0.729998C12.2514 0.729998 13.6014 0.939999 14.8014 1.36C16.0214 1.78 17.0414 2.33 17.8614 3.01V7C17.8614 7.44 17.6414 7.66 17.2014 7.66C16.8814 7.66 16.6314 7.55 16.4514 7.33C16.2714 7.09 16.1114 6.7 15.9714 6.16L15.4014 4.09C14.9814 3.83 14.4214 3.61 13.7214 3.43C13.0214 3.23 12.2514 3.13 11.4114 3.13C10.0514 3.13 8.84141 3.45 7.78141 4.09C6.74141 4.73 5.92141 5.68 5.32141 6.94C4.74141 8.2 4.45141 9.73 4.45141 11.53C4.45141 13.35 4.76141 14.9 5.38141 16.18C6.00141 17.44 6.85141 18.4 7.93141 19.06C9.01141 19.7 10.2314 20.02 11.5914 20.02C12.5514 20.02 13.3714 19.94 14.0514 19.78C14.7314 19.62 15.4014 19.31 16.0614 18.85C16.5614 18.51 16.9114 18.34 17.1114 18.34C17.3714 18.34 17.6014 18.45 17.8014 18.67C18.0014 18.87 18.1014 19.12 18.1014 19.42C18.1014 19.96 17.7614 20.46 17.0814 20.92C16.4414 21.34 15.6114 21.7 14.5914 22C13.5914 22.28 12.4214 22.42 11.0814 22.42ZM27.8805 22.42C26.4805 22.42 25.2205 22.13 24.1005 21.55C22.9805 20.97 22.0905 20.1 21.4305 18.94C20.7905 17.78 20.4705 16.36 20.4705 14.68C20.4705 13 20.7905 11.59 21.4305 10.45C22.0905 9.29 22.9805 8.42 24.1005 7.84C25.2205 7.26 26.4805 6.97 27.8805 6.97C29.2805 6.97 30.5305 7.26 31.6305 7.84C32.7505 8.42 33.6305 9.29 34.2705 10.45C34.9305 11.59 35.2605 13 35.2605 14.68C35.2605 16.36 34.9305 17.78 34.2705 18.94C33.6305 20.1 32.7505 20.97 31.6305 21.55C30.5305 22.13 29.2805 22.42 27.8805 22.42ZM27.8805 20.26C29.1205 20.26 30.0705 19.78 30.7305 18.82C31.4105 17.86 31.7505 16.48 31.7505 14.68C31.7505 12.9 31.4105 11.53 30.7305 10.57C30.0705 9.61 29.1205 9.13 27.8805 9.13C26.6405 9.13 25.6805 9.61 25.0005 10.57C24.3405 11.53 24.0105 12.9 24.0105 14.68C24.0105 16.48 24.3405 17.86 25.0005 18.82C25.6805 19.78 26.6405 20.26 27.8805 20.26ZM37.8653 22C37.4053 22 37.1753 21.72 37.1753 21.16C37.1753 20.36 37.7053 19.96 38.7653 19.96H39.2453V9.31H37.8653C37.4053 9.31 37.1753 9.03 37.1753 8.47C37.1753 8.07 37.3153 7.77 37.5953 7.57C37.8753 7.37 38.2653 7.27 38.7653 7.27H42.6053V9.16H42.6953C44.4153 7.7 46.0753 6.97 47.6753 6.97C48.6353 6.97 49.4753 7.18 50.1953 7.6C50.9153 8 51.4553 8.59 51.8153 9.37C53.5753 7.77 55.3453 6.97 57.1253 6.97C58.4853 6.97 59.5953 7.37 60.4553 8.17C61.3353 8.97 61.7753 10.08 61.7753 11.5V19.99L62.9453 20.44C63.3053 20.58 63.5653 20.73 63.7253 20.89C63.8853 21.05 63.9653 21.25 63.9653 21.49C63.9653 21.83 63.8053 22 63.4853 22H56.9453C56.4853 22 56.2553 21.72 56.2553 21.16C56.2553 20.36 56.7853 19.96 57.8453 19.96H58.2653V11.83C58.2653 10.11 57.4853 9.25 55.9253 9.25C55.2853 9.25 54.6453 9.43 54.0053 9.79C53.3653 10.13 52.7853 10.56 52.2653 11.08V19.99L53.4653 20.44C53.8253 20.58 54.0853 20.73 54.2453 20.89C54.4053 21.05 54.4853 21.25 54.4853 21.49C54.4853 21.83 54.3253 22 54.0053 22H47.4653C47.0053 22 46.7753 21.72 46.7753 21.16C46.7753 20.36 47.3053 19.96 48.3653 19.96H48.7553V11.83C48.7553 10.11 47.9753 9.25 46.4153 9.25C45.7753 9.25 45.1353 9.43 44.4953 9.79C43.8753 10.13 43.2953 10.57 42.7553 11.11V19.99L43.9553 20.44C44.3153 20.58 44.5753 20.73 44.7353 20.89C44.8953 21.05 44.9753 21.25 44.9753 21.49C44.9753 21.83 44.8153 22 44.4953 22H37.8653ZM66.4319 28.39C65.9719 28.39 65.7419 28.11 65.7419 27.55C65.7419 26.75 66.2719 26.35 67.3319 26.35H67.8119V9.31H66.4319C65.9719 9.31 65.7419 9.03 65.7419 8.47C65.7419 8.07 65.8819 7.77 66.1619 7.57C66.4419 7.37 66.8319 7.27 67.3319 7.27H71.2319V8.77L71.3219 8.83C72.6019 7.59 74.0819 6.97 75.7619 6.97C77.0019 6.97 78.1319 7.25 79.1519 7.81C80.1719 8.37 80.9919 9.24 81.6119 10.42C82.2319 11.58 82.5419 13.04 82.5419 14.8C82.5419 17.24 81.8619 19.12 80.5019 20.44C79.1419 21.76 77.3319 22.42 75.0719 22.42C74.4919 22.42 73.8519 22.34 73.1519 22.18C72.4719 22.04 71.8519 21.84 71.2919 21.58V26.35L72.5219 26.83C72.9419 26.99 73.2219 27.14 73.3619 27.28C73.5019 27.44 73.5719 27.64 73.5719 27.88C73.5719 28.22 73.4219 28.39 73.1219 28.39H66.4319ZM74.5019 20.26C75.9619 20.26 77.0819 19.82 77.8619 18.94C78.6419 18.04 79.0319 16.67 79.0319 14.83C79.0319 12.89 78.6619 11.46 77.9219 10.54C77.2019 9.6 76.1919 9.13 74.8919 9.13C73.9319 9.13 73.0919 9.43 72.3719 10.03C71.6519 10.63 71.2919 11.4 71.2919 12.34V19.42C71.7319 19.68 72.2519 19.89 72.8519 20.05C73.4519 20.19 74.0019 20.26 74.5019 20.26ZM92.2827 22.42C90.8227 22.42 89.5027 22.13 88.3227 21.55C87.1627 20.97 86.2427 20.11 85.5627 18.97C84.9027 17.83 84.5727 16.45 84.5727 14.83C84.5727 13.19 84.8827 11.78 85.5027 10.6C86.1427 9.42 87.0127 8.52 88.1127 7.9C89.2327 7.28 90.5027 6.97 91.9227 6.97C93.2427 6.97 94.4027 7.23 95.4027 7.75C96.4227 8.27 97.2127 9.01 97.7727 9.97C98.3527 10.93 98.6427 12.05 98.6427 13.33C98.6427 13.69 98.5927 14.09 98.4927 14.53C98.3927 14.97 98.2627 15.34 98.1027 15.64H88.1127C88.1127 17.16 88.5327 18.31 89.3727 19.09C90.2327 19.87 91.2627 20.26 92.4627 20.26C93.1627 20.26 93.7727 20.18 94.2927 20.02C94.8327 19.84 95.4327 19.56 96.0927 19.18C96.1727 19.14 96.3027 19.07 96.4827 18.97C96.6827 18.85 96.8427 18.79 96.9627 18.79C97.2227 18.79 97.4427 18.89 97.6227 19.09C97.8027 19.29 97.8927 19.54 97.8927 19.84C97.8927 20.12 97.8027 20.37 97.6227 20.59C97.4427 20.81 97.1527 21.04 96.7527 21.28C95.4327 22.04 93.9427 22.42 92.2827 22.42ZM94.9827 13.48C95.0827 13.22 95.1327 12.92 95.1327 12.58C95.1327 11.5 94.8427 10.66 94.2627 10.06C93.6827 9.44 92.8927 9.13 91.8927 9.13C90.8527 9.13 89.9827 9.52 89.2827 10.3C88.5827 11.08 88.1927 12.14 88.1127 13.48H94.9827ZM107.708 22.42C106.428 22.42 105.358 22.05 104.498 21.31C103.658 20.57 103.238 19.54 103.238 18.22V9.58H101.198C100.958 9.58 100.768 9.5 100.628 9.34C100.508 9.18 100.448 8.96 100.448 8.68C100.448 8.26 100.588 7.94 100.868 7.72C101.168 7.5 101.558 7.39 102.038 7.39H103.298L103.838 4.03H106.748V7.39H111.368C111.508 7.39 111.618 7.43 111.698 7.51C111.798 7.59 111.848 7.7 111.848 7.84C111.848 8.16 111.718 8.41 111.458 8.59C111.218 8.75 110.808 8.89 110.228 9.01L106.748 9.58V18.43C106.748 19.03 106.898 19.48 107.198 19.78C107.518 20.08 107.948 20.23 108.488 20.23C109.128 20.23 109.728 20.01 110.288 19.57C110.348 19.53 110.448 19.45 110.588 19.33C110.748 19.19 110.918 19.12 111.098 19.12C111.358 19.12 111.568 19.21 111.728 19.39C111.908 19.55 111.998 19.77 111.998 20.05C111.998 20.55 111.608 21.05 110.828 21.55C109.908 22.13 108.868 22.42 107.708 22.42ZM117.445 5.14C116.785 5.14 116.235 4.93 115.795 4.51C115.355 4.09 115.135 3.53 115.135 2.83C115.135 2.13 115.355 1.57 115.795 1.15C116.235 0.729999 116.785 0.519999 117.445 0.519999C118.105 0.519999 118.655 0.729999 119.095 1.15C119.555 1.57 119.785 2.13 119.785 2.83C119.785 3.53 119.555 4.09 119.095 4.51C118.655 4.93 118.105 5.14 117.445 5.14ZM114.385 22C113.925 22 113.695 21.72 113.695 21.16C113.695 20.36 114.225 19.96 115.285 19.96H115.765V9.31H114.385C113.925 9.31 113.695 9.03 113.695 8.47C113.695 8.07 113.835 7.77 114.115 7.57C114.395 7.37 114.785 7.27 115.285 7.27H119.275V19.96L120.475 20.44C120.875 20.62 121.155 20.79 121.315 20.95C121.475 21.09 121.555 21.27 121.555 21.49C121.555 21.83 121.405 22 121.105 22H114.385ZM129.388 22.42C128.108 22.42 127.038 22.05 126.178 21.31C125.338 20.57 124.918 19.54 124.918 18.22V9.58H122.878C122.638 9.58 122.448 9.5 122.308 9.34C122.188 9.18 122.128 8.96 122.128 8.68C122.128 8.26 122.268 7.94 122.548 7.72C122.848 7.5 123.238 7.39 123.718 7.39H124.978L125.518 4.03H128.428V7.39H133.048C133.188 7.39 133.298 7.43 133.378 7.51C133.478 7.59 133.528 7.7 133.528 7.84C133.528 8.16 133.398 8.41 133.138 8.59C132.898 8.75 132.488 8.89 131.908 9.01L128.428 9.58V18.43C128.428 19.03 128.578 19.48 128.878 19.78C129.198 20.08 129.628 20.23 130.168 20.23C130.808 20.23 131.408 20.01 131.968 19.57C132.028 19.53 132.128 19.45 132.268 19.33C132.428 19.19 132.598 19.12 132.778 19.12C133.038 19.12 133.248 19.21 133.408 19.39C133.588 19.55 133.678 19.77 133.678 20.05C133.678 20.55 133.288 21.05 132.508 21.55C131.588 22.13 130.548 22.42 129.388 22.42ZM139.125 5.14C138.465 5.14 137.915 4.93 137.475 4.51C137.035 4.09 136.815 3.53 136.815 2.83C136.815 2.13 137.035 1.57 137.475 1.15C137.915 0.729999 138.465 0.519999 139.125 0.519999C139.785 0.519999 140.335 0.729999 140.775 1.15C141.235 1.57 141.465 2.13 141.465 2.83C141.465 3.53 141.235 4.09 140.775 4.51C140.335 4.93 139.785 5.14 139.125 5.14ZM136.065 22C135.605 22 135.375 21.72 135.375 21.16C135.375 20.36 135.905 19.96 136.965 19.96H137.445V9.31H136.065C135.605 9.31 135.375 9.03 135.375 8.47C135.375 8.07 135.515 7.77 135.795 7.57C136.075 7.37 136.465 7.27 136.965 7.27H140.955V19.96L142.155 20.44C142.555 20.62 142.835 20.79 142.995 20.95C143.155 21.09 143.235 21.27 143.235 21.49C143.235 21.83 143.085 22 142.785 22H136.065ZM152.011 22.42C150.611 22.42 149.351 22.13 148.231 21.55C147.111 20.97 146.221 20.1 145.561 18.94C144.921 17.78 144.601 16.36 144.601 14.68C144.601 13 144.921 11.59 145.561 10.45C146.221 9.29 147.111 8.42 148.231 7.84C149.351 7.26 150.611 6.97 152.011 6.97C153.411 6.97 154.661 7.26 155.761 7.84C156.881 8.42 157.761 9.29 158.401 10.45C159.061 11.59 159.391 13 159.391 14.68C159.391 16.36 159.061 17.78 158.401 18.94C157.761 20.1 156.881 20.97 155.761 21.55C154.661 22.13 153.411 22.42 152.011 22.42ZM152.011 20.26C153.251 20.26 154.201 19.78 154.861 18.82C155.541 17.86 155.881 16.48 155.881 14.68C155.881 12.9 155.541 11.53 154.861 10.57C154.201 9.61 153.251 9.13 152.011 9.13C150.771 9.13 149.811 9.61 149.131 10.57C148.471 11.53 148.141 12.9 148.141 14.68C148.141 16.48 148.471 17.86 149.131 18.82C149.811 19.78 150.771 20.26 152.011 20.26ZM161.938 22C161.478 22 161.248 21.72 161.248 21.16C161.248 20.36 161.778 19.96 162.838 19.96H163.318V9.31H161.938C161.478 9.31 161.248 9.03 161.248 8.47C161.248 8.07 161.388 7.77 161.668 7.57C161.948 7.37 162.338 7.27 162.838 7.27H166.678V9.19H166.768C168.428 7.71 170.128 6.97 171.868 6.97C173.308 6.97 174.488 7.39 175.408 8.23C176.348 9.05 176.818 10.18 176.818 11.62V19.96L177.988 20.44C178.388 20.62 178.668 20.79 178.828 20.95C178.988 21.09 179.068 21.27 179.068 21.49C179.068 21.83 178.918 22 178.618 22H171.898C171.438 22 171.208 21.72 171.208 21.16C171.208 20.36 171.738 19.96 172.798 19.96H173.308V11.92C173.308 11.08 173.088 10.43 172.648 9.97C172.208 9.49 171.558 9.25 170.698 9.25C170.038 9.25 169.368 9.44 168.688 9.82C168.008 10.18 167.388 10.66 166.828 11.26V19.96L168.028 20.44C168.428 20.62 168.708 20.79 168.868 20.95C169.028 21.09 169.108 21.27 169.108 21.49C169.108 21.83 168.958 22 168.658 22H161.938Z" fill="#1E1E1E"/>
</svg>
