<svg width="160" height="23" viewBox="0 0 160 23" fill="none" xmlns="http://www.w3.org/2000/svg">
<path d="M10.6615 22.42C8.70148 22.42 6.93148 22.01 5.35148 21.19C3.77148 20.37 2.52148 19.14 1.60148 17.5C0.681484 15.86 0.221484 13.87 0.221484 11.53C0.221484 9.23 0.681484 7.27 1.60148 5.65C2.54148 4.01 3.77148 2.78 5.29148 1.96C6.83148 1.14 8.51148 0.729998 10.3315 0.729998C11.8315 0.729998 13.1815 0.939999 14.3815 1.36C15.6015 1.78 16.6215 2.33 17.4415 3.01V7C17.4415 7.44 17.2215 7.66 16.7815 7.66C16.4615 7.66 16.2115 7.55 16.0315 7.33C15.8515 7.09 15.6915 6.7 15.5515 6.16L14.9815 4.09C14.5615 3.83 14.0015 3.61 13.3015 3.43C12.6015 3.23 11.8315 3.13 10.9915 3.13C9.63149 3.13 8.42149 3.45 7.36149 4.09C6.32148 4.73 5.50148 5.68 4.90148 6.94C4.32148 8.2 4.03148 9.73 4.03148 11.53C4.03148 13.35 4.34148 14.9 4.96148 16.18C5.58148 17.44 6.43148 18.4 7.51149 19.06C8.59148 19.7 9.81148 20.02 11.1715 20.02C12.1315 20.02 12.9515 19.94 13.6315 19.78C14.3115 19.62 14.9815 19.31 15.6415 18.85C16.1415 18.51 16.4915 18.34 16.6915 18.34C16.9515 18.34 17.1815 18.45 17.3815 18.67C17.5815 18.87 17.6815 19.12 17.6815 19.42C17.6815 19.96 17.3415 20.46 16.6615 20.92C16.0215 21.34 15.1915 21.7 14.1715 22C13.1715 22.28 12.0015 22.42 10.6615 22.42ZM27.4605 22.42C26.0605 22.42 24.8005 22.13 23.6805 21.55C22.5605 20.97 21.6705 20.1 21.0105 18.94C20.3705 17.78 20.0505 16.36 20.0505 14.68C20.0505 13 20.3705 11.59 21.0105 10.45C21.6705 9.29 22.5605 8.42 23.6805 7.84C24.8005 7.26 26.0605 6.97 27.4605 6.97C28.8605 6.97 30.1105 7.26 31.2105 7.84C32.3305 8.42 33.2105 9.29 33.8505 10.45C34.5105 11.59 34.8405 13 34.8405 14.68C34.8405 16.36 34.5105 17.78 33.8505 18.94C33.2105 20.1 32.3305 20.97 31.2105 21.55C30.1105 22.13 28.8605 22.42 27.4605 22.42ZM27.4605 20.26C28.7005 20.26 29.6505 19.78 30.3105 18.82C30.9905 17.86 31.3305 16.48 31.3305 14.68C31.3305 12.9 30.9905 11.53 30.3105 10.57C29.6505 9.61 28.7005 9.13 27.4605 9.13C26.2205 9.13 25.2605 9.61 24.5805 10.57C23.9205 11.53 23.5905 12.9 23.5905 14.68C23.5905 16.48 23.9205 17.86 24.5805 18.82C25.2605 19.78 26.2205 20.26 27.4605 20.26ZM37.3868 22C36.9268 22 36.6968 21.72 36.6968 21.16C36.6968 20.36 37.2268 19.96 38.2868 19.96H38.7668V9.31H37.3868C36.9268 9.31 36.6968 9.03 36.6968 8.47C36.6968 8.07 36.8368 7.77 37.1168 7.57C37.3968 7.37 37.7868 7.27 38.2868 7.27H42.1268V9.19H42.2168C43.8768 7.71 45.5768 6.97 47.3168 6.97C48.7568 6.97 49.9368 7.39 50.8568 8.23C51.7968 9.05 52.2668 10.18 52.2668 11.62V19.96L53.4368 20.44C53.8368 20.62 54.1168 20.79 54.2768 20.95C54.4368 21.09 54.5168 21.27 54.5168 21.49C54.5168 21.83 54.3668 22 54.0668 22H47.3468C46.8868 22 46.6568 21.72 46.6568 21.16C46.6568 20.36 47.1868 19.96 48.2468 19.96H48.7568V11.92C48.7568 11.08 48.5368 10.43 48.0968 9.97C47.6568 9.49 47.0068 9.25 46.1468 9.25C45.4868 9.25 44.8168 9.44 44.1368 9.82C43.4568 10.18 42.8368 10.66 42.2768 11.26V19.96L43.4768 20.44C43.8768 20.62 44.1568 20.79 44.3168 20.95C44.4768 21.09 44.5568 21.27 44.5568 21.49C44.5568 21.83 44.4068 22 44.1068 22H37.3868ZM57.1078 22C56.6478 22 56.4178 21.72 56.4178 21.16C56.4178 20.36 56.9478 19.96 58.0078 19.96H58.4878V9.58H56.8978C56.6578 9.58 56.4678 9.5 56.3278 9.34C56.2078 9.18 56.1478 8.96 56.1478 8.68C56.1478 8.26 56.2878 7.94 56.5678 7.72C56.8678 7.5 57.2578 7.39 57.7378 7.39H58.4878V6.22C58.4878 5 58.7878 3.95 59.3878 3.07C59.9878 2.17 60.7978 1.5 61.8178 1.06C62.8578 0.6 64.0078 0.37 65.2678 0.37C66.6878 0.37 67.9978 0.579999 69.1978 0.999999C70.4178 1.4 71.3678 1.87 72.0478 2.41V5.38C72.0478 5.76 71.8178 5.95 71.3578 5.95C71.0578 5.95 70.8178 5.86 70.6378 5.68C70.4778 5.48 70.3478 5.19 70.2478 4.81L69.9178 3.52C69.5178 3.28 68.9678 3.06 68.2678 2.86C67.5878 2.66 66.8678 2.56 66.1078 2.56C64.9478 2.56 63.9678 2.88 63.1678 3.52C62.3878 4.16 61.9978 5.01 61.9978 6.07V7.39H72.5878V19.96L73.7878 20.44C74.1878 20.62 74.4678 20.79 74.6278 20.95C74.7878 21.09 74.8678 21.27 74.8678 21.49C74.8678 21.83 74.7178 22 74.4178 22H67.6978C67.2378 22 67.0078 21.72 67.0078 21.16C67.0078 20.36 67.5378 19.96 68.5978 19.96H69.0778V9.4L61.9978 9.58V19.96L63.1978 20.44C63.5978 20.62 63.8778 20.79 64.0378 20.95C64.1978 21.09 64.2778 21.27 64.2778 21.49C64.2778 21.83 64.1278 22 63.8278 22H57.1078ZM83.082 22.42C81.822 22.42 80.672 22.15 79.632 21.61C78.612 21.05 77.782 20.2 77.142 19.06C76.522 17.92 76.212 16.5 76.212 14.8C76.212 13.22 76.532 11.84 77.172 10.66C77.832 9.46 78.712 8.55 79.812 7.93C80.932 7.29 82.182 6.97 83.562 6.97C84.942 6.97 86.252 7.31 87.492 7.99V2.74H86.082C85.622 2.74 85.392 2.46 85.392 1.9C85.392 1.5 85.532 1.2 85.812 0.999999C86.112 0.799999 86.502 0.699999 86.982 0.699999H90.912V19.96L92.022 20.44C92.422 20.62 92.702 20.79 92.862 20.95C93.022 21.09 93.102 21.27 93.102 21.49C93.102 21.83 92.952 22 92.652 22H87.582V20.38H87.462C87.002 21 86.392 21.5 85.632 21.88C84.892 22.24 84.042 22.42 83.082 22.42ZM83.922 20.26C84.942 20.26 85.782 19.95 86.442 19.33C87.102 18.71 87.432 17.89 87.432 16.87V10.21C86.992 9.89 86.482 9.63 85.902 9.43C85.322 9.23 84.742 9.13 84.162 9.13C82.882 9.13 81.822 9.62 80.982 10.6C80.142 11.58 79.722 12.97 79.722 14.77C79.722 16.57 80.092 17.94 80.832 18.88C81.592 19.8 82.622 20.26 83.922 20.26ZM102.468 22.42C101.008 22.42 99.6883 22.13 98.5083 21.55C97.3483 20.97 96.4283 20.11 95.7483 18.97C95.0883 17.83 94.7583 16.45 94.7583 14.83C94.7583 13.19 95.0683 11.78 95.6883 10.6C96.3283 9.42 97.1983 8.52 98.2983 7.9C99.4183 7.28 100.688 6.97 102.108 6.97C103.428 6.97 104.588 7.23 105.588 7.75C106.608 8.27 107.398 9.01 107.958 9.97C108.538 10.93 108.828 12.05 108.828 13.33C108.828 13.69 108.778 14.09 108.678 14.53C108.578 14.97 108.448 15.34 108.288 15.64H98.2983C98.2983 17.16 98.7183 18.31 99.5583 19.09C100.418 19.87 101.448 20.26 102.648 20.26C103.348 20.26 103.958 20.18 104.478 20.02C105.018 19.84 105.618 19.56 106.278 19.18C106.358 19.14 106.488 19.07 106.668 18.97C106.868 18.85 107.028 18.79 107.148 18.79C107.408 18.79 107.628 18.89 107.808 19.09C107.988 19.29 108.078 19.54 108.078 19.84C108.078 20.12 107.988 20.37 107.808 20.59C107.628 20.81 107.338 21.04 106.938 21.28C105.618 22.04 104.128 22.42 102.468 22.42ZM105.168 13.48C105.268 13.22 105.318 12.92 105.318 12.58C105.318 11.5 105.028 10.66 104.448 10.06C103.868 9.44 103.078 9.13 102.078 9.13C101.038 9.13 100.168 9.52 99.4683 10.3C98.7683 11.08 98.3783 12.14 98.2983 13.48H105.168ZM111.391 22C110.931 22 110.701 21.72 110.701 21.16C110.701 20.36 111.231 19.96 112.291 19.96H112.771V9.31H111.391C110.931 9.31 110.701 9.03 110.701 8.47C110.701 8.07 110.841 7.77 111.121 7.57C111.401 7.37 111.791 7.27 112.291 7.27H116.131V9.19H116.221C117.881 7.71 119.581 6.97 121.321 6.97C122.761 6.97 123.941 7.39 124.861 8.23C125.801 9.05 126.271 10.18 126.271 11.62V19.96L127.441 20.44C127.841 20.62 128.121 20.79 128.281 20.95C128.441 21.09 128.521 21.27 128.521 21.49C128.521 21.83 128.371 22 128.071 22H121.351C120.891 22 120.661 21.72 120.661 21.16C120.661 20.36 121.191 19.96 122.251 19.96H122.761V11.92C122.761 11.08 122.541 10.43 122.101 9.97C121.661 9.49 121.011 9.25 120.151 9.25C119.491 9.25 118.821 9.44 118.141 9.82C117.461 10.18 116.841 10.66 116.281 11.26V19.96L117.481 20.44C117.881 20.62 118.161 20.79 118.321 20.95C118.481 21.09 118.561 21.27 118.561 21.49C118.561 21.83 118.411 22 118.111 22H111.391ZM137.772 22.42C136.252 22.42 134.902 22.11 133.722 21.49C132.542 20.87 131.622 19.98 130.962 18.82C130.302 17.64 129.972 16.25 129.972 14.65C129.972 13.01 130.302 11.61 130.962 10.45C131.642 9.29 132.542 8.42 133.662 7.84C134.782 7.26 136.022 6.97 137.382 6.97C138.462 6.97 139.482 7.15 140.442 7.51C141.422 7.87 142.202 8.3 142.782 8.8V11.92C142.782 12.3 142.552 12.49 142.092 12.49C141.512 12.49 141.142 12.11 140.982 11.35L140.652 9.94C140.312 9.7 139.892 9.51 139.392 9.37C138.912 9.23 138.392 9.16 137.832 9.16C136.552 9.16 135.502 9.63 134.682 10.57C133.882 11.51 133.482 12.88 133.482 14.68C133.482 16.5 133.902 17.89 134.742 18.85C135.582 19.79 136.682 20.26 138.042 20.26C138.702 20.26 139.282 20.18 139.782 20.02C140.302 19.84 140.822 19.56 141.342 19.18C141.662 18.94 141.932 18.82 142.152 18.82C142.392 18.82 142.592 18.92 142.752 19.12C142.932 19.3 143.022 19.54 143.022 19.84C143.022 20.38 142.622 20.89 141.822 21.37C140.662 22.07 139.312 22.42 137.772 22.42ZM152.683 22.42C151.223 22.42 149.903 22.13 148.723 21.55C147.563 20.97 146.643 20.11 145.963 18.97C145.303 17.83 144.973 16.45 144.973 14.83C144.973 13.19 145.283 11.78 145.903 10.6C146.543 9.42 147.413 8.52 148.513 7.9C149.633 7.28 150.903 6.97 152.323 6.97C153.643 6.97 154.803 7.23 155.803 7.75C156.823 8.27 157.613 9.01 158.173 9.97C158.753 10.93 159.043 12.05 159.043 13.33C159.043 13.69 158.993 14.09 158.893 14.53C158.793 14.97 158.663 15.34 158.503 15.64H148.513C148.513 17.16 148.933 18.31 149.773 19.09C150.633 19.87 151.663 20.26 152.863 20.26C153.563 20.26 154.173 20.18 154.693 20.02C155.233 19.84 155.833 19.56 156.493 19.18C156.573 19.14 156.703 19.07 156.883 18.97C157.083 18.85 157.243 18.79 157.363 18.79C157.623 18.79 157.843 18.89 158.023 19.09C158.203 19.29 158.293 19.54 158.293 19.84C158.293 20.12 158.203 20.37 158.023 20.59C157.843 20.81 157.553 21.04 157.153 21.28C155.833 22.04 154.343 22.42 152.683 22.42ZM155.383 13.48C155.483 13.22 155.533 12.92 155.533 12.58C155.533 11.5 155.243 10.66 154.663 10.06C154.083 9.44 153.293 9.13 152.293 9.13C151.253 9.13 150.383 9.52 149.683 10.3C148.983 11.08 148.593 12.14 148.513 13.48H155.383Z" fill="#1E1E1E"/>
</svg>
