<svg width="90" height="23" viewBox="0 0 90 23" fill="none" xmlns="http://www.w3.org/2000/svg">
<path d="M0.559961 22C0.179961 22 -0.010039 21.75 -0.010039 21.25C-0.010039 20.87 0.119961 20.57 0.379961 20.35C0.639961 20.11 1.06996 19.92 1.66996 19.78L2.26996 19.63V3.52L1.66996 3.37C1.06996 3.21 0.639961 3.02 0.379961 2.8C0.119961 2.58 -0.010039 2.28 -0.010039 1.9C-0.010039 1.4 0.179961 1.15 0.559961 1.15H17.48V5.83C17.48 6.23 17.28 6.43 16.88 6.43C16.62 6.43 16.39 6.29 16.19 6.01C16.01 5.73 15.83 5.27 15.65 4.63L15.32 3.49H6.01996V10.18H13.46L13.91 9.01C14.17 8.33 14.48 7.99 14.84 7.99C15.02 7.99 15.15 8.04 15.23 8.14C15.33 8.24 15.38 8.37 15.38 8.53V14.14C15.38 14.5 15.2 14.68 14.84 14.68C14.66 14.68 14.5 14.6 14.36 14.44C14.22 14.28 14.07 14.02 13.91 13.66L13.46 12.49H6.01996V19.66H15.74L16.07 18.49C16.25 17.85 16.43 17.39 16.61 17.11C16.81 16.83 17.04 16.69 17.3 16.69C17.52 16.69 17.67 16.74 17.75 16.84C17.85 16.94 17.9 17.09 17.9 17.29V22H0.559961ZM27.9181 22.42C26.6381 22.42 25.5681 22.05 24.7081 21.31C23.8681 20.57 23.4481 19.54 23.4481 18.22V9.58H21.4081C21.1681 9.58 20.9781 9.5 20.8381 9.34C20.7181 9.18 20.6581 8.96 20.6581 8.68C20.6581 8.26 20.7981 7.94 21.0781 7.72C21.3781 7.5 21.7681 7.39 22.2481 7.39H23.5081L24.0481 4.03H26.9581V7.39H31.5781C31.7181 7.39 31.8281 7.43 31.9081 7.51C32.0081 7.59 32.0581 7.7 32.0581 7.84C32.0581 8.16 31.9281 8.41 31.6681 8.59C31.4281 8.75 31.0181 8.89 30.4381 9.01L26.9581 9.58V18.43C26.9581 19.03 27.1081 19.48 27.4081 19.78C27.7281 20.08 28.1581 20.23 28.6981 20.23C29.3381 20.23 29.9381 20.01 30.4981 19.57C30.5581 19.53 30.6581 19.45 30.7981 19.33C30.9581 19.19 31.1281 19.12 31.3081 19.12C31.5681 19.12 31.7781 19.21 31.9381 19.39C32.1181 19.55 32.2081 19.77 32.2081 20.05C32.2081 20.55 31.8181 21.05 31.0381 21.55C30.1181 22.13 29.0781 22.42 27.9181 22.42ZM34.8352 22C34.3752 22 34.1452 21.72 34.1452 21.16C34.1452 20.36 34.6752 19.96 35.7352 19.96H36.2152V2.74H34.8352C34.3752 2.74 34.1452 2.46 34.1452 1.9C34.1452 1.5 34.2852 1.2 34.5652 0.999999C34.8452 0.799999 35.2352 0.699999 35.7352 0.699999H39.6052V9.16H39.7252C41.3652 7.7 43.0452 6.97 44.7652 6.97C46.2052 6.97 47.3852 7.39 48.3052 8.23C49.2452 9.05 49.7152 10.18 49.7152 11.62V19.96L50.8852 20.44C51.2852 20.62 51.5652 20.79 51.7252 20.95C51.8852 21.09 51.9652 21.27 51.9652 21.49C51.9652 21.83 51.8152 22 51.5152 22H44.7952C44.3352 22 44.1052 21.72 44.1052 21.16C44.1052 20.36 44.6352 19.96 45.6952 19.96H46.2052V11.86C46.2052 11.04 45.9852 10.39 45.5452 9.91C45.1052 9.43 44.4552 9.19 43.5952 9.19C42.9352 9.19 42.2652 9.38 41.5852 9.76C40.9052 10.12 40.2852 10.6 39.7252 11.2V19.96L40.9252 20.44C41.3252 20.62 41.6052 20.79 41.7652 20.95C41.9252 21.09 42.0052 21.27 42.0052 21.49C42.0052 21.83 41.8552 22 41.5552 22H34.8352ZM57.2841 5.14C56.6241 5.14 56.0741 4.93 55.6341 4.51C55.1941 4.09 54.9741 3.53 54.9741 2.83C54.9741 2.13 55.1941 1.57 55.6341 1.15C56.0741 0.729999 56.6241 0.519999 57.2841 0.519999C57.9441 0.519999 58.4941 0.729999 58.9341 1.15C59.3941 1.57 59.6241 2.13 59.6241 2.83C59.6241 3.53 59.3941 4.09 58.9341 4.51C58.4941 4.93 57.9441 5.14 57.2841 5.14ZM54.2241 22C53.7641 22 53.5341 21.72 53.5341 21.16C53.5341 20.36 54.0641 19.96 55.1241 19.96H55.6041V9.31H54.2241C53.7641 9.31 53.5341 9.03 53.5341 8.47C53.5341 8.07 53.6741 7.77 53.9541 7.57C54.2341 7.37 54.6241 7.27 55.1241 7.27H59.1141V19.96L60.3141 20.44C60.7141 20.62 60.9941 20.79 61.1541 20.95C61.3141 21.09 61.3941 21.27 61.3941 21.49C61.3941 21.83 61.2441 22 60.9441 22H54.2241ZM70.5305 22.42C69.0105 22.42 67.6605 22.11 66.4805 21.49C65.3005 20.87 64.3805 19.98 63.7205 18.82C63.0605 17.64 62.7305 16.25 62.7305 14.65C62.7305 13.01 63.0605 11.61 63.7205 10.45C64.4005 9.29 65.3005 8.42 66.4205 7.84C67.5405 7.26 68.7805 6.97 70.1405 6.97C71.2205 6.97 72.2405 7.15 73.2005 7.51C74.1805 7.87 74.9605 8.3 75.5405 8.8V11.92C75.5405 12.3 75.3105 12.49 74.8505 12.49C74.2705 12.49 73.9005 12.11 73.7405 11.35L73.4105 9.94C73.0705 9.7 72.6505 9.51 72.1505 9.37C71.6705 9.23 71.1505 9.16 70.5905 9.16C69.3105 9.16 68.2605 9.63 67.4405 10.57C66.6405 11.51 66.2405 12.88 66.2405 14.68C66.2405 16.5 66.6605 17.89 67.5005 18.85C68.3405 19.79 69.4405 20.26 70.8005 20.26C71.4605 20.26 72.0405 20.18 72.5405 20.02C73.0605 19.84 73.5805 19.56 74.1005 19.18C74.4205 18.94 74.6905 18.82 74.9105 18.82C75.1505 18.82 75.3505 18.92 75.5105 19.12C75.6905 19.3 75.7805 19.54 75.7805 19.84C75.7805 20.38 75.3805 20.89 74.5805 21.37C73.4205 22.07 72.0705 22.42 70.5305 22.42ZM83.4619 22.42C82.4019 22.42 81.3319 22.26 80.2519 21.94C79.1919 21.62 78.3719 21.24 77.7919 20.8V17.56C77.7919 17.4 77.8419 17.26 77.9419 17.14C78.0619 17.02 78.2319 16.96 78.4519 16.96C79.0119 16.96 79.3919 17.35 79.5919 18.13L79.8919 19.42C80.2119 19.66 80.6719 19.86 81.2719 20.02C81.8719 20.16 82.4919 20.23 83.1319 20.23C85.0119 20.23 85.9519 19.7 85.9519 18.64C85.9519 18.24 85.8319 17.91 85.5919 17.65C85.3519 17.37 85.0219 17.12 84.6019 16.9C84.1819 16.68 83.3519 16.28 82.1119 15.7C80.5719 14.98 79.4719 14.29 78.8119 13.63C78.1719 12.95 77.8519 12.09 77.8519 11.05C77.8519 9.77 78.3819 8.77 79.4419 8.05C80.5019 7.33 81.8219 6.97 83.4019 6.97C84.4819 6.97 85.5119 7.16 86.4919 7.54C87.4919 7.9 88.2719 8.32 88.8319 8.8V11.89C88.8319 12.05 88.7719 12.18 88.6519 12.28C88.5519 12.38 88.3919 12.43 88.1719 12.43C87.8719 12.43 87.6319 12.34 87.4519 12.16C87.2719 11.96 87.1319 11.67 87.0319 11.29L86.7019 9.94C86.3619 9.7 85.9419 9.51 85.4419 9.37C84.9619 9.23 84.4419 9.16 83.8819 9.16C83.1419 9.16 82.5319 9.29 82.0519 9.55C81.5919 9.81 81.3619 10.22 81.3619 10.78C81.3619 11.12 81.4519 11.41 81.6319 11.65C81.8319 11.89 82.1219 12.12 82.5019 12.34C82.8819 12.56 83.5119 12.88 84.3919 13.3L85.3819 13.78C86.8619 14.5 87.9119 15.19 88.5319 15.85C89.1519 16.49 89.4619 17.35 89.4619 18.43C89.4619 19.81 88.8819 20.82 87.7219 21.46C86.5819 22.1 85.1619 22.42 83.4619 22.42Z" fill="#1E1E1E"/>
</svg>
