<svg width="76" height="23" viewBox="0 0 76 23" fill="none" xmlns="http://www.w3.org/2000/svg">
<path d="M1.57898 22C1.33898 22 1.14898 21.92 1.00898 21.76C0.888984 21.6 0.828984 21.38 0.828984 21.1C0.828984 20.68 0.978984 20.37 1.27898 20.17C1.57898 19.95 1.98898 19.84 2.50898 19.84H3.01898V3.52L2.41898 3.37C1.81898 3.23 1.38898 3.05 1.12898 2.83C0.868984 2.59 0.738984 2.28 0.738984 1.9C0.738984 1.4 0.928984 1.15 1.30898 1.15H17.539V5.89C17.539 6.29 17.339 6.49 16.939 6.49C16.679 6.49 16.449 6.36 16.249 6.1C16.069 5.82 15.889 5.36 15.709 4.72L15.379 3.55H6.76898V10.81H13.519L13.969 9.64C14.229 8.96 14.529 8.62 14.869 8.62C15.249 8.62 15.439 8.79 15.439 9.13V14.89C15.439 15.05 15.389 15.18 15.289 15.28C15.209 15.38 15.069 15.43 14.869 15.43C14.529 15.43 14.229 15.09 13.969 14.41L13.519 13.21H6.76898V19.84L8.02898 20.32C8.46898 20.48 8.76898 20.65 8.92898 20.83C9.08898 20.99 9.16898 21.21 9.16898 21.49C9.16898 21.65 9.12898 21.78 9.04898 21.88C8.98898 21.96 8.85899 22 8.65899 22H1.57898ZM23.7776 22.42C22.4976 22.42 21.3976 22.06 20.4776 21.34C19.5776 20.6 19.1276 19.56 19.1276 18.22C19.1276 16.7 19.6676 15.59 20.7476 14.89C21.8276 14.19 23.2276 13.71 24.9476 13.45L28.4876 12.91V11.83C28.4876 10.99 28.2276 10.33 27.7076 9.85C27.1876 9.37 26.4676 9.13 25.5476 9.13C24.9876 9.13 24.3676 9.22 23.6876 9.4C23.0276 9.58 22.5076 9.79 22.1276 10.03L21.8276 11.26C21.7276 11.66 21.5776 11.96 21.3776 12.16C21.1976 12.34 20.9576 12.43 20.6576 12.43C20.4376 12.43 20.2676 12.38 20.1476 12.28C20.0476 12.16 19.9976 12.02 19.9976 11.86V8.65C20.8576 8.15 21.8376 7.75 22.9376 7.45C24.0376 7.13 25.1076 6.97 26.1476 6.97C27.8876 6.97 29.2976 7.4 30.3776 8.26C31.4576 9.1 31.9976 10.32 31.9976 11.92V20.05L32.9576 20.44C33.3576 20.62 33.6376 20.79 33.7976 20.95C33.9576 21.09 34.0376 21.27 34.0376 21.49C34.0376 21.83 33.8876 22 33.5876 22H28.5476V20.35H28.4276C27.9076 20.97 27.2276 21.47 26.3876 21.85C25.5676 22.23 24.6976 22.42 23.7776 22.42ZM24.8876 20.14C25.5076 20.14 26.0876 19.99 26.6276 19.69C27.1876 19.39 27.6376 19 27.9776 18.52C28.3176 18.02 28.4876 17.49 28.4876 16.93V14.98L25.6076 15.43C23.6276 15.77 22.6376 16.65 22.6376 18.07C22.6376 18.71 22.8376 19.22 23.2376 19.6C23.6376 19.96 24.1876 20.14 24.8876 20.14ZM39.3124 5.14C38.6524 5.14 38.1024 4.93 37.6624 4.51C37.2224 4.09 37.0024 3.53 37.0024 2.83C37.0024 2.13 37.2224 1.57 37.6624 1.15C38.1024 0.729999 38.6524 0.519999 39.3124 0.519999C39.9724 0.519999 40.5224 0.729999 40.9624 1.15C41.4224 1.57 41.6524 2.13 41.6524 2.83C41.6524 3.53 41.4224 4.09 40.9624 4.51C40.5224 4.93 39.9724 5.14 39.3124 5.14ZM36.2524 22C35.7924 22 35.5624 21.72 35.5624 21.16C35.5624 20.36 36.0924 19.96 37.1524 19.96H37.6324V9.31H36.2524C35.7924 9.31 35.5624 9.03 35.5624 8.47C35.5624 8.07 35.7024 7.77 35.9824 7.57C36.2624 7.37 36.6524 7.27 37.1524 7.27H41.1424V19.96L42.3424 20.44C42.7424 20.62 43.0224 20.79 43.1824 20.95C43.3424 21.09 43.4224 21.27 43.4224 21.49C43.4224 21.83 43.2724 22 42.9724 22H36.2524ZM51.255 22.42C49.975 22.42 48.905 22.05 48.045 21.31C47.205 20.57 46.785 19.54 46.785 18.22V9.58H44.745C44.505 9.58 44.315 9.5 44.175 9.34C44.055 9.18 43.995 8.96 43.995 8.68C43.995 8.26 44.135 7.94 44.415 7.72C44.715 7.5 45.105 7.39 45.585 7.39H46.845L47.385 4.03H50.295V7.39H54.915C55.055 7.39 55.165 7.43 55.245 7.51C55.345 7.59 55.395 7.7 55.395 7.84C55.395 8.16 55.265 8.41 55.005 8.59C54.765 8.75 54.355 8.89 53.775 9.01L50.295 9.58V18.43C50.295 19.03 50.445 19.48 50.745 19.78C51.065 20.08 51.495 20.23 52.035 20.23C52.675 20.23 53.275 20.01 53.835 19.57C53.895 19.53 53.995 19.45 54.135 19.33C54.295 19.19 54.465 19.12 54.645 19.12C54.905 19.12 55.115 19.21 55.275 19.39C55.455 19.55 55.545 19.77 55.545 20.05C55.545 20.55 55.155 21.05 54.375 21.55C53.455 22.13 52.415 22.42 51.255 22.42ZM58.1721 22C57.7121 22 57.4821 21.72 57.4821 21.16C57.4821 20.36 58.0121 19.96 59.0721 19.96H59.5521V2.74H58.1721C57.7121 2.74 57.4821 2.46 57.4821 1.9C57.4821 1.5 57.6221 1.2 57.9021 0.999999C58.1821 0.799999 58.5721 0.699999 59.0721 0.699999H62.9421V9.16H63.0621C64.7021 7.7 66.3821 6.97 68.1021 6.97C69.5421 6.97 70.7221 7.39 71.6421 8.23C72.5821 9.05 73.0521 10.18 73.0521 11.62V19.96L74.2221 20.44C74.6221 20.62 74.9021 20.79 75.0621 20.95C75.2221 21.09 75.3021 21.27 75.3021 21.49C75.3021 21.83 75.1521 22 74.8521 22H68.1321C67.6721 22 67.4421 21.72 67.4421 21.16C67.4421 20.36 67.9721 19.96 69.0321 19.96H69.5421V11.86C69.5421 11.04 69.3221 10.39 68.8821 9.91C68.4421 9.43 67.7921 9.19 66.9321 9.19C66.2721 9.19 65.6021 9.38 64.9221 9.76C64.2421 10.12 63.6221 10.6 63.0621 11.2V19.96L64.2621 20.44C64.6621 20.62 64.9421 20.79 65.1021 20.95C65.2621 21.09 65.3421 21.27 65.3421 21.49C65.3421 21.83 65.1921 22 64.8921 22H58.1721Z" fill="#1E1E1E"/>
</svg>
