<svg width="89" height="22" viewBox="0 0 89 22" fill="none" xmlns="http://www.w3.org/2000/svg">
<path d="M1.28 21C1.04 21 0.85 20.92 0.71 20.76C0.59 20.6 0.53 20.38 0.53 20.1C0.53 19.68 0.68 19.37 0.98 19.17C1.28 18.95 1.69 18.84 2.21 18.84H2.72V2.31H1.28C1.04 2.31 0.85 2.23 0.71 2.07C0.59 1.91 0.53 1.69 0.53 1.41C0.53 0.989999 0.68 0.679999 0.98 0.48C1.28 0.259999 1.68 0.149998 2.18 0.149998H8.36C8.56 0.149998 8.69 0.199998 8.75 0.299998C8.83 0.379998 8.87 0.499999 8.87 0.659999C8.87 0.919999 8.78 1.14 8.6 1.32C8.42 1.5 8.13 1.67 7.73 1.83L6.47 2.31V8.97H16.4V2.31H14.81C14.57 2.31 14.38 2.23 14.24 2.07C14.12 1.91 14.06 1.69 14.06 1.41C14.06 0.989999 14.21 0.679999 14.51 0.48C14.81 0.259999 15.21 0.149998 15.71 0.149998H21.92C22.24 0.149998 22.4 0.319999 22.4 0.659999C22.4 0.919999 22.32 1.13 22.16 1.29C22.02 1.43 21.79 1.57 21.47 1.71L20.15 2.31V18.84L21.47 19.44C21.79 19.58 22.02 19.73 22.16 19.89C22.32 20.03 22.4 20.23 22.4 20.49C22.4 20.83 22.24 21 21.92 21H14.81C14.57 21 14.38 20.92 14.24 20.76C14.12 20.6 14.06 20.38 14.06 20.1C14.06 19.68 14.21 19.37 14.51 19.17C14.81 18.95 15.21 18.84 15.71 18.84H16.4V11.37H6.47V18.84L7.73 19.32C8.15 19.48 8.44 19.65 8.6 19.83C8.78 20.01 8.87 20.23 8.87 20.49C8.87 20.65 8.83 20.78 8.75 20.88C8.69 20.96 8.56 21 8.36 21H1.28ZM31.4527 21.42C30.0527 21.42 28.7927 21.13 27.6727 20.55C26.5527 19.97 25.6627 19.1 25.0027 17.94C24.3627 16.78 24.0427 15.36 24.0427 13.68C24.0427 12 24.3627 10.59 25.0027 9.45C25.6627 8.29 26.5527 7.42 27.6727 6.84C28.7927 6.26 30.0527 5.97 31.4527 5.97C32.8527 5.97 34.1027 6.26 35.2027 6.84C36.3227 7.42 37.2027 8.29 37.8427 9.45C38.5027 10.59 38.8327 12 38.8327 13.68C38.8327 15.36 38.5027 16.78 37.8427 17.94C37.2027 19.1 36.3227 19.97 35.2027 20.55C34.1027 21.13 32.8527 21.42 31.4527 21.42ZM31.4527 19.26C32.6927 19.26 33.6427 18.78 34.3027 17.82C34.9827 16.86 35.3227 15.48 35.3227 13.68C35.3227 11.9 34.9827 10.53 34.3027 9.57C33.6427 8.61 32.6927 8.13 31.4527 8.13C30.2127 8.13 29.2527 8.61 28.5727 9.57C27.9127 10.53 27.5827 11.9 27.5827 13.68C27.5827 15.48 27.9127 16.86 28.5727 17.82C29.2527 18.78 30.2127 19.26 31.4527 19.26ZM41.379 21C40.919 21 40.689 20.72 40.689 20.16C40.689 19.36 41.219 18.96 42.279 18.96H42.759V8.31H41.379C40.919 8.31 40.689 8.03 40.689 7.47C40.689 7.07 40.829 6.77 41.109 6.57C41.389 6.37 41.779 6.27 42.279 6.27H46.119V8.19H46.209C47.869 6.71 49.569 5.97 51.309 5.97C52.749 5.97 53.929 6.39 54.849 7.23C55.789 8.05 56.259 9.18 56.259 10.62V18.96L57.429 19.44C57.829 19.62 58.109 19.79 58.269 19.95C58.429 20.09 58.509 20.27 58.509 20.49C58.509 20.83 58.359 21 58.059 21H51.339C50.879 21 50.649 20.72 50.649 20.16C50.649 19.36 51.179 18.96 52.239 18.96H52.749V10.92C52.749 10.08 52.529 9.43 52.089 8.97C51.649 8.49 50.999 8.25 50.139 8.25C49.479 8.25 48.809 8.44 48.129 8.82C47.449 9.18 46.829 9.66 46.269 10.26V18.96L47.469 19.44C47.869 19.62 48.149 19.79 48.309 19.95C48.469 20.09 48.549 20.27 48.549 20.49C48.549 20.83 48.399 21 48.099 21H41.379ZM67.4 21.42C66 21.42 64.74 21.13 63.62 20.55C62.5 19.97 61.61 19.1 60.95 17.94C60.31 16.78 59.99 15.36 59.99 13.68C59.99 12 60.31 10.59 60.95 9.45C61.61 8.29 62.5 7.42 63.62 6.84C64.74 6.26 66 5.97 67.4 5.97C68.8 5.97 70.05 6.26 71.15 6.84C72.27 7.42 73.15 8.29 73.79 9.45C74.45 10.59 74.78 12 74.78 13.68C74.78 15.36 74.45 16.78 73.79 17.94C73.15 19.1 72.27 19.97 71.15 20.55C70.05 21.13 68.8 21.42 67.4 21.42ZM67.4 19.26C68.64 19.26 69.59 18.78 70.25 17.82C70.93 16.86 71.27 15.48 71.27 13.68C71.27 11.9 70.93 10.53 70.25 9.57C69.59 8.61 68.64 8.13 67.4 8.13C66.16 8.13 65.2 8.61 64.52 9.57C63.86 10.53 63.53 11.9 63.53 13.68C63.53 15.48 63.86 16.86 64.52 17.82C65.2 18.78 66.16 19.26 67.4 19.26ZM77.0919 21C76.6319 21 76.4019 20.72 76.4019 20.16C76.4019 19.36 76.9319 18.96 77.9919 18.96H78.4719V8.31H77.0919C76.6319 8.31 76.4019 8.03 76.4019 7.47C76.4019 7.07 76.5419 6.77 76.8219 6.57C77.1019 6.37 77.4919 6.27 77.9919 6.27H81.8319V9.3H81.9219C82.6419 8.36 83.4619 7.57 84.3819 6.93C85.3019 6.29 86.1819 5.97 87.0219 5.97C87.6019 5.97 88.0519 6.13 88.3719 6.45C88.6919 6.77 88.8519 7.18 88.8519 7.68C88.8519 7.98 88.7919 8.28 88.6719 8.58C88.5719 8.86 88.4319 9.09 88.2519 9.27C85.9519 9.27 83.8619 10.03 81.9819 11.55V18.96L83.1819 19.44C83.5819 19.62 83.8619 19.79 84.0219 19.95C84.1819 20.09 84.2619 20.27 84.2619 20.49C84.2619 20.83 84.1119 21 83.8119 21H77.0919Z" fill="#1E1E1E"/>
</svg>
