<svg width="161" height="30" viewBox="0 0 161 30" fill="none" xmlns="http://www.w3.org/2000/svg">
<path d="M1.36398 22C1.12398 22 0.933984 21.92 0.793984 21.76C0.673984 21.6 0.613984 21.38 0.613984 21.1C0.613984 20.68 0.763984 20.37 1.06398 20.17C1.36398 19.95 1.77398 19.84 2.29398 19.84H2.80398V3.31H1.36398C1.12398 3.31 0.933984 3.23 0.793984 3.07C0.673984 2.91 0.613984 2.69 0.613984 2.41C0.613984 1.99 0.763984 1.68 1.06398 1.48C1.36398 1.26 1.76398 1.15 2.26398 1.15H8.41398C8.55398 1.15 8.66399 1.2 8.74399 1.3C8.84399 1.38 8.89399 1.5 8.89399 1.66C8.89399 1.94 8.81398 2.17 8.65398 2.35C8.49398 2.53 8.21398 2.69 7.81398 2.83L6.55398 3.31V19.84L7.81398 20.32C8.21398 20.48 8.50398 20.65 8.68399 20.83C8.86399 21.01 8.95399 21.23 8.95399 21.49C8.95399 21.65 8.90398 21.78 8.80398 21.88C8.72398 21.96 8.60398 22 8.44398 22H1.36398ZM6.55398 11.62L14.834 3.31H13.004C12.764 3.31 12.574 3.23 12.434 3.07C12.314 2.91 12.254 2.69 12.254 2.41C12.254 1.99 12.404 1.68 12.704 1.48C13.004 1.26 13.404 1.15 13.904 1.15H19.904C20.304 1.15 20.504 1.39 20.504 1.87C20.504 2.39 20.084 2.77 19.244 3.01L18.224 3.28L10.544 11.05L18.344 19.93L19.784 20.35C20.224 20.49 20.534 20.65 20.714 20.83C20.914 20.99 21.014 21.2 21.014 21.46C21.014 21.82 20.844 22 20.504 22H15.104L6.55398 11.62ZM23.0352 22C22.5752 22 22.3452 21.72 22.3452 21.16C22.3452 20.36 22.8752 19.96 23.9352 19.96H24.4152V9.31H23.0352C22.5752 9.31 22.3452 9.03 22.3452 8.47C22.3452 8.07 22.4852 7.77 22.7652 7.57C23.0452 7.37 23.4352 7.27 23.9352 7.27H27.7752V9.19H27.8652C29.5252 7.71 31.2252 6.97 32.9652 6.97C34.4052 6.97 35.5852 7.39 36.5052 8.23C37.4452 9.05 37.9152 10.18 37.9152 11.62V19.96L39.0852 20.44C39.4852 20.62 39.7652 20.79 39.9252 20.95C40.0852 21.09 40.1652 21.27 40.1652 21.49C40.1652 21.83 40.0152 22 39.7152 22H32.9952C32.5352 22 32.3052 21.72 32.3052 21.16C32.3052 20.36 32.8352 19.96 33.8952 19.96H34.4052V11.92C34.4052 11.08 34.1852 10.43 33.7452 9.97C33.3052 9.49 32.6552 9.25 31.7952 9.25C31.1352 9.25 30.4652 9.44 29.7852 9.82C29.1052 10.18 28.4852 10.66 27.9252 11.26V19.96L29.1252 20.44C29.5252 20.62 29.8052 20.79 29.9652 20.95C30.1252 21.09 30.2052 21.27 30.2052 21.49C30.2052 21.83 30.0552 22 29.7552 22H23.0352ZM49.0563 22.42C47.6563 22.42 46.3963 22.13 45.2763 21.55C44.1563 20.97 43.2663 20.1 42.6063 18.94C41.9663 17.78 41.6462 16.36 41.6462 14.68C41.6462 13 41.9663 11.59 42.6063 10.45C43.2663 9.29 44.1563 8.42 45.2763 7.84C46.3963 7.26 47.6563 6.97 49.0563 6.97C50.4563 6.97 51.7063 7.26 52.8063 7.84C53.9263 8.42 54.8063 9.29 55.4463 10.45C56.1063 11.59 56.4363 13 56.4363 14.68C56.4363 16.36 56.1063 17.78 55.4463 18.94C54.8063 20.1 53.9263 20.97 52.8063 21.55C51.7063 22.13 50.4563 22.42 49.0563 22.42ZM49.0563 20.26C50.2963 20.26 51.2463 19.78 51.9063 18.82C52.5863 17.86 52.9263 16.48 52.9263 14.68C52.9263 12.9 52.5863 11.53 51.9063 10.57C51.2463 9.61 50.2963 9.13 49.0563 9.13C47.8163 9.13 46.8563 9.61 46.1763 10.57C45.5163 11.53 45.1863 12.9 45.1863 14.68C45.1863 16.48 45.5163 17.86 46.1763 18.82C46.8563 19.78 47.8163 20.26 49.0563 20.26ZM58.8911 9.31H57.7511C57.2911 9.31 57.0611 9.03 57.0611 8.47C57.0611 8.07 57.2011 7.77 57.4811 7.57C57.7611 7.37 58.1411 7.27 58.6211 7.27H64.4411C64.7611 7.27 64.9211 7.44 64.9211 7.78C64.9211 8.22 64.5611 8.57 63.8411 8.83L62.3411 9.34L65.1311 18.55C65.2111 18.87 65.2711 19.2 65.3111 19.54C65.3711 19.88 65.4011 20.1 65.4011 20.2H65.5211C65.5211 20.1 65.5411 19.88 65.5811 19.54C65.6411 19.2 65.7111 18.87 65.7911 18.55L68.7611 7.27H73.0211L76.3211 18.55C76.4011 18.87 76.4611 19.2 76.5011 19.54C76.5611 19.88 76.5911 20.1 76.5911 20.2H76.7111C76.7111 20.1 76.7311 19.88 76.7711 19.54C76.8311 19.2 76.9011 18.87 76.9811 18.55L79.5011 9.31H77.8211C77.3411 9.31 77.1011 9.03 77.1011 8.47C77.1011 8.07 77.2411 7.77 77.5211 7.57C77.8211 7.37 78.2111 7.27 78.6911 7.27H83.7911C84.0911 7.27 84.2411 7.44 84.2411 7.78C84.2411 8 84.1411 8.19 83.9411 8.35C83.7611 8.51 83.5011 8.67 83.1611 8.83L82.0211 9.34L78.3911 22H73.8611L70.8611 11.59C70.7411 11.21 70.6511 10.78 70.5911 10.3C70.5511 9.8 70.5311 9.47 70.5311 9.31H70.4111C70.4111 9.47 70.3811 9.8 70.3211 10.3C70.2611 10.78 70.1811 11.21 70.0811 11.59L67.3211 22H62.7911L58.8911 9.31ZM86.2614 22C85.8014 22 85.5714 21.72 85.5714 21.16C85.5714 20.36 86.1014 19.96 87.1614 19.96H87.6414V2.74H86.2614C85.8014 2.74 85.5714 2.46 85.5714 1.9C85.5714 1.5 85.7114 1.2 85.9914 0.999999C86.2714 0.799999 86.6614 0.699999 87.1614 0.699999H91.1514V19.96L92.3514 20.44C92.7514 20.62 93.0314 20.79 93.1914 20.95C93.3514 21.09 93.4314 21.27 93.4314 21.49C93.4314 21.83 93.2814 22 92.9814 22H86.2614ZM102.794 22.42C101.334 22.42 100.014 22.13 98.8345 21.55C97.6745 20.97 96.7545 20.11 96.0745 18.97C95.4145 17.83 95.0845 16.45 95.0845 14.83C95.0845 13.19 95.3945 11.78 96.0145 10.6C96.6545 9.42 97.5245 8.52 98.6245 7.9C99.7445 7.28 101.014 6.97 102.434 6.97C103.754 6.97 104.914 7.23 105.914 7.75C106.934 8.27 107.724 9.01 108.284 9.97C108.864 10.93 109.154 12.05 109.154 13.33C109.154 13.69 109.104 14.09 109.004 14.53C108.904 14.97 108.774 15.34 108.614 15.64H98.6245C98.6245 17.16 99.0445 18.31 99.8845 19.09C100.744 19.87 101.774 20.26 102.974 20.26C103.674 20.26 104.284 20.18 104.804 20.02C105.344 19.84 105.944 19.56 106.604 19.18C106.684 19.14 106.814 19.07 106.994 18.97C107.194 18.85 107.354 18.79 107.474 18.79C107.734 18.79 107.954 18.89 108.134 19.09C108.314 19.29 108.404 19.54 108.404 19.84C108.404 20.12 108.314 20.37 108.134 20.59C107.954 20.81 107.664 21.04 107.264 21.28C105.944 22.04 104.454 22.42 102.794 22.42ZM105.494 13.48C105.594 13.22 105.644 12.92 105.644 12.58C105.644 11.5 105.354 10.66 104.774 10.06C104.194 9.44 103.404 9.13 102.404 9.13C101.364 9.13 100.494 9.52 99.7945 10.3C99.0945 11.08 98.7045 12.14 98.6245 13.48H105.494ZM118.096 22.42C116.836 22.42 115.686 22.15 114.646 21.61C113.626 21.05 112.796 20.2 112.156 19.06C111.536 17.92 111.226 16.5 111.226 14.8C111.226 13.22 111.546 11.84 112.186 10.66C112.846 9.46 113.726 8.55 114.826 7.93C115.946 7.29 117.196 6.97 118.576 6.97C119.956 6.97 121.266 7.31 122.506 7.99V2.74H121.096C120.636 2.74 120.406 2.46 120.406 1.9C120.406 1.5 120.546 1.2 120.826 0.999999C121.126 0.799999 121.516 0.699999 121.996 0.699999H125.926V19.96L127.036 20.44C127.436 20.62 127.716 20.79 127.876 20.95C128.036 21.09 128.116 21.27 128.116 21.49C128.116 21.83 127.966 22 127.666 22H122.596V20.38H122.476C122.016 21 121.406 21.5 120.646 21.88C119.906 22.24 119.056 22.42 118.096 22.42ZM118.936 20.26C119.956 20.26 120.796 19.95 121.456 19.33C122.116 18.71 122.446 17.89 122.446 16.87V10.21C122.006 9.89 121.496 9.63 120.916 9.43C120.336 9.23 119.756 9.13 119.176 9.13C117.896 9.13 116.836 9.62 115.996 10.6C115.156 11.58 114.736 12.97 114.736 14.77C114.736 16.57 115.106 17.94 115.846 18.88C116.606 19.8 117.636 20.26 118.936 20.26ZM136.945 29.08C136.025 29.08 135.115 28.97 134.215 28.75C133.315 28.53 132.565 28.24 131.965 27.88C131.565 27.64 131.265 27.41 131.065 27.19C130.885 26.97 130.795 26.71 130.795 26.41C130.795 26.11 130.885 25.86 131.065 25.66C131.245 25.48 131.455 25.39 131.695 25.39C131.795 25.39 131.915 25.42 132.055 25.48C132.195 25.56 132.365 25.66 132.565 25.78C133.845 26.54 135.265 26.92 136.825 26.92C138.165 26.92 139.185 26.57 139.885 25.87C140.585 25.19 140.935 24.23 140.935 22.99V20.47H140.815C140.335 21.07 139.725 21.55 138.985 21.91C138.265 22.25 137.415 22.42 136.435 22.42C135.175 22.42 134.025 22.15 132.985 21.61C131.965 21.05 131.135 20.2 130.495 19.06C129.875 17.92 129.565 16.5 129.565 14.8C129.565 13.08 129.925 11.63 130.645 10.45C131.365 9.27 132.315 8.4 133.495 7.84C134.695 7.26 136.015 6.97 137.455 6.97C138.675 6.97 139.895 7.18 141.115 7.6C142.335 8.02 143.385 8.59 144.265 9.31V22.48C144.265 24.58 143.625 26.2 142.345 27.34C141.085 28.5 139.285 29.08 136.945 29.08ZM137.245 20.26C138.265 20.26 139.105 19.95 139.765 19.33C140.445 18.71 140.785 17.89 140.785 16.87V10C140.345 9.74 139.845 9.53 139.285 9.37C138.725 9.21 138.145 9.13 137.545 9.13C136.245 9.13 135.175 9.63 134.335 10.63C133.495 11.61 133.075 12.99 133.075 14.77C133.075 16.57 133.445 17.94 134.185 18.88C134.945 19.8 135.965 20.26 137.245 20.26ZM154.621 22.42C153.161 22.42 151.841 22.13 150.661 21.55C149.501 20.97 148.581 20.11 147.901 18.97C147.241 17.83 146.911 16.45 146.911 14.83C146.911 13.19 147.221 11.78 147.841 10.6C148.481 9.42 149.351 8.52 150.451 7.9C151.571 7.28 152.841 6.97 154.261 6.97C155.581 6.97 156.741 7.23 157.741 7.75C158.761 8.27 159.551 9.01 160.111 9.97C160.691 10.93 160.981 12.05 160.981 13.33C160.981 13.69 160.931 14.09 160.831 14.53C160.731 14.97 160.601 15.34 160.441 15.64H150.451C150.451 17.16 150.871 18.31 151.711 19.09C152.571 19.87 153.601 20.26 154.801 20.26C155.501 20.26 156.111 20.18 156.631 20.02C157.171 19.84 157.771 19.56 158.431 19.18C158.511 19.14 158.641 19.07 158.821 18.97C159.021 18.85 159.181 18.79 159.301 18.79C159.561 18.79 159.781 18.89 159.961 19.09C160.141 19.29 160.231 19.54 160.231 19.84C160.231 20.12 160.141 20.37 159.961 20.59C159.781 20.81 159.491 21.04 159.091 21.28C157.771 22.04 156.281 22.42 154.621 22.42ZM157.321 13.48C157.421 13.22 157.471 12.92 157.471 12.58C157.471 11.5 157.181 10.66 156.601 10.06C156.021 9.44 155.231 9.13 154.231 9.13C153.191 9.13 152.321 9.52 151.621 10.3C150.921 11.08 150.531 12.14 150.451 13.48H157.321Z" fill="#1E1E1E"/>
</svg>
