<svg width="395" height="64" viewBox="0 0 395 64" fill="none" xmlns="http://www.w3.org/2000/svg">
<path d="M6.43359 41.916C2.14974 37.4499 0.0078125 32.0039 0.0078125 25.5781C0.0078125 22.388 0.577474 19.403 1.7168 16.623C2.85612 13.7975 4.4056 11.3366 6.36523 9.24023C8.37044 7.09831 10.6947 5.4349 13.3379 4.25C15.9811 3.01953 18.8066 2.4043 21.8145 2.4043C24.8223 2.4043 27.6478 3.01953 30.291 4.25C32.9342 5.4349 35.2585 7.09831 37.2637 9.24023C39.2689 11.3366 40.8411 13.7975 41.9805 16.623C43.1198 19.403 43.6895 22.388 43.6895 25.5781C43.6895 32.0039 41.5475 37.4499 37.2637 41.916C34.347 45.015 31.043 47.0658 27.3516 48.0684C23.6602 49.1165 19.9688 49.1165 16.2773 48.0684C12.6315 47.0658 9.35026 45.015 6.43359 41.916ZM22.9082 45.7441C25.8249 45.7441 28.377 44.7871 30.5645 42.873C32.752 41.0046 34.347 38.6803 35.3496 35.9004C36.3978 33.0749 36.9219 30.0671 36.9219 26.877C36.9219 23.2767 36.3294 19.8359 35.1445 16.5547C33.9596 13.319 32.1139 10.6302 29.6074 8.48828C27.1009 6.34635 24.1615 5.27539 20.7891 5.27539C17.918 5.27539 15.4342 6.16406 13.3379 7.94141C11.2415 9.67318 9.6237 11.9746 8.48438 14.8457C7.34505 17.6712 6.77539 20.7474 6.77539 24.0742C6.77539 27.6745 7.36784 31.1152 8.55273 34.3965C9.73763 37.6322 11.5833 40.3438 14.0898 42.5312C16.5964 44.6732 19.5358 45.7441 22.9082 45.7441ZM71.8535 48.5469C71.4889 48.5469 71.3066 48.1823 71.3066 47.4531V43.9668C71.3066 43.7389 71.2611 43.625 71.1699 43.625C68.1621 46.8607 65.1771 48.4785 62.2148 48.4785C60.0729 48.4785 58.3639 47.8633 57.0879 46.6328C55.8574 45.3568 54.9688 43.7617 54.4219 41.8477C53.9206 39.888 53.6699 37.86 53.6699 35.7637V27.1504C53.6699 25.4186 53.3509 24.1882 52.7129 23.459C52.2572 22.9121 51.7103 22.5475 51.0723 22.3652C50.4798 22.1829 49.9329 22.0918 49.4316 22.0918C48.9759 22.0462 48.748 21.9779 48.748 21.8867C48.748 20.793 48.8848 20.2233 49.1582 20.1777C51.5736 19.8132 53.5104 19.4941 54.9688 19.2207C56.4727 18.9017 57.3385 18.7194 57.5664 18.6738L58.9336 18.332C59.1159 18.2865 59.2298 18.4688 59.2754 18.8789C59.321 19.2891 59.321 19.5853 59.2754 19.7676C59.002 21.9551 58.8652 23.6413 58.8652 24.8262V34.0547C58.8652 37.5638 59.3893 40.1615 60.4375 41.8477C61.4857 43.4883 63.1947 44.3086 65.5645 44.3086C66.4759 44.3086 67.3646 44.0579 68.2305 43.5566C69.1419 43.0553 69.8711 42.4629 70.418 41.7793C71.0104 41.0501 71.3066 40.4349 71.3066 39.9336V27.1504C71.3066 25.4186 70.9876 24.1882 70.3496 23.459C69.8939 22.9121 69.347 22.5475 68.709 22.3652C68.1165 22.1829 67.5697 22.069 67.0684 22.0234C66.6126 21.9779 66.3848 21.9323 66.3848 21.8867C66.3848 20.793 66.5215 20.2233 66.7949 20.1777C69.2103 19.8132 71.0104 19.5169 72.1953 19.2891C73.4258 19.0612 74.4056 18.8561 75.1348 18.6738L76.5703 18.332C76.7526 18.2865 76.8665 18.4688 76.9121 18.8789C76.9577 19.2891 76.9577 19.5853 76.9121 19.7676C76.6387 21.9551 76.502 23.5957 76.502 24.6895V38.3613C76.502 40.4121 76.6615 42.1439 76.9805 43.5566C77.1172 44.0124 77.4818 44.3086 78.0742 44.4453C78.6667 44.5365 79.3503 44.6276 80.125 44.7188L81.0137 44.7871C81.1504 44.8327 81.2188 45.0833 81.2188 45.5391C81.2188 45.6758 81.1504 45.9036 81.0137 46.2227C80.9225 46.4961 80.8086 46.6328 80.6719 46.6328C79.3047 46.724 77.8008 46.9746 76.1602 47.3848C74.5195 47.7493 73.2891 48.0911 72.4688 48.4102L71.8535 48.5469ZM84.6367 48.2051C84.4544 48.0228 84.3633 47.6354 84.3633 47.043C84.3633 46.4961 84.4544 46.2227 84.6367 46.2227C85.0013 46.2227 85.5026 46.1543 86.1406 46.0176C86.7786 45.8809 87.3711 45.6986 87.918 45.4707C88.4648 45.2428 88.7611 45.0378 88.8066 44.8555C88.9889 44.2174 89.1029 43.4883 89.1484 42.668C89.2396 41.8477 89.2852 40.9818 89.2852 40.0703V27.1504C89.2852 25.4186 88.9661 24.1882 88.3281 23.459C87.8724 22.9121 87.3255 22.5475 86.6875 22.3652C86.0951 22.1829 85.5482 22.0918 85.0469 22.0918C84.5911 22.0462 84.3633 21.9779 84.3633 21.8867C84.3633 20.793 84.5 20.2233 84.7734 20.1777C89.7409 19.403 92.612 18.9017 93.3867 18.6738L94.5488 18.332C94.7311 18.2865 94.8451 18.4688 94.8906 18.8789C94.9362 19.2891 94.9362 19.5853 94.8906 19.7676L94.4805 23.1855C95.3008 21.9551 96.4173 20.8158 97.8301 19.7676C99.2884 18.6738 100.724 18.127 102.137 18.127C104.78 18.127 106.557 18.7878 107.469 20.1094C107.469 21.7044 107.218 22.8665 106.717 23.5957C106.215 24.3249 105.6 24.6895 104.871 24.6895C104.051 24.6895 103.299 24.3021 102.615 23.5273C101.932 22.7526 100.997 22.3652 99.8125 22.3652C98.901 22.3652 98.0352 22.6842 97.2148 23.3223C96.3945 23.9147 95.7337 24.6895 95.2324 25.6465C94.7767 26.5579 94.5488 27.515 94.5488 28.5176V38.7715C94.5488 40.0931 94.5944 41.2552 94.6855 42.2578C94.7767 43.2604 94.9134 44.1263 95.0957 44.8555C95.1868 45.0378 95.5059 45.2428 96.0527 45.4707C96.5996 45.6986 97.1921 45.8809 97.8301 46.0176C98.5137 46.1543 98.9922 46.2227 99.2656 46.2227C99.4023 46.2227 99.4935 46.4961 99.5391 47.043C99.5846 47.5898 99.5618 47.9772 99.4707 48.2051L92.0879 47.8633L84.6367 48.2051ZM126.746 48.2051C126.609 48.0684 126.541 47.6582 126.541 46.9746C126.541 46.3822 126.609 46.0859 126.746 46.0859C127.202 46.0859 127.749 46.0176 128.387 45.8809C129.07 45.7441 129.708 45.5846 130.301 45.4023C130.939 45.1745 131.326 44.9238 131.463 44.6504C131.782 44.1491 131.941 42.0072 131.941 38.2246V12.3848C131.941 11.0632 131.896 9.90104 131.805 8.89844C131.759 7.89583 131.645 7.09831 131.463 6.50586C131.372 6.23242 131.007 5.98177 130.369 5.75391C129.777 5.52604 129.116 5.34375 128.387 5.20703C127.703 5.07031 127.156 5.00195 126.746 5.00195C126.564 5.00195 126.473 4.72852 126.473 4.18164C126.473 3.58919 126.564 3.20182 126.746 3.01953L134.949 3.15625C135.633 3.15625 136.385 3.15625 137.205 3.15625C138.025 3.11068 138.891 3.0651 139.803 3.01953C140.714 2.97396 141.58 2.95117 142.4 2.95117C143.221 2.9056 143.95 2.88281 144.588 2.88281C146.092 2.88281 147.618 3.11068 149.168 3.56641C150.717 4.02214 152.199 4.70573 153.611 5.61719C155.07 6.52865 156.232 7.82747 157.098 9.51367C158.009 11.1999 158.465 13.1595 158.465 15.3926C158.465 16.8053 158.169 18.3092 157.576 19.9043C156.984 21.4993 156.095 23.0033 154.91 24.416C153.771 25.7832 152.312 26.8997 150.535 27.7656C148.803 28.6315 146.798 29.0645 144.52 29.0645C141.967 29.0645 140.213 28.4264 139.256 27.1504C138.982 26.8314 138.914 26.3073 139.051 25.5781C139.142 25.3503 139.21 25.2819 139.256 25.373C140.669 25.8743 142.195 26.125 143.836 26.125C145.385 26.125 146.775 25.6921 148.006 24.8262C149.282 23.9147 150.285 22.7298 151.014 21.2715C151.788 19.7676 152.176 18.1497 152.176 16.418C152.176 13.1823 151.469 10.6302 150.057 8.76172C148.644 6.84766 146.456 5.89062 143.494 5.89062C141.398 5.89062 139.803 6.05013 138.709 6.36914C138.299 6.41471 138.048 7.12109 137.957 8.48828C137.911 9.85547 137.889 11.6556 137.889 13.8887V38.293C137.889 41.3008 138.071 43.2832 138.436 44.2402C138.618 44.6048 139.051 44.9466 139.734 45.2656C140.464 45.5846 141.238 45.8353 142.059 46.0176C142.879 46.1543 143.471 46.2227 143.836 46.2227C144.018 46.2227 144.109 46.5417 144.109 47.1797C144.109 47.4987 144.064 47.8405 143.973 48.2051C141.694 48.1139 139.803 48.0456 138.299 48C136.84 47.9089 135.77 47.8633 135.086 47.8633L126.746 48.2051ZM163.523 48.2051C163.341 48.0228 163.25 47.6354 163.25 47.043C163.25 46.4961 163.341 46.2227 163.523 46.2227C163.888 46.2227 164.389 46.1543 165.027 46.0176C165.665 45.8809 166.258 45.6986 166.805 45.4707C167.352 45.2428 167.648 45.0378 167.693 44.8555C167.876 44.2174 167.99 43.4883 168.035 42.668C168.126 41.8477 168.172 40.9818 168.172 40.0703V27.1504C168.172 25.4186 167.853 24.1882 167.215 23.459C166.759 22.9121 166.212 22.5475 165.574 22.3652C164.982 22.1829 164.435 22.0918 163.934 22.0918C163.478 22.0462 163.25 21.9779 163.25 21.8867C163.25 20.793 163.387 20.2233 163.66 20.1777C168.628 19.403 171.499 18.9017 172.273 18.6738L173.436 18.332C173.618 18.2865 173.732 18.4688 173.777 18.8789C173.823 19.2891 173.823 19.5853 173.777 19.7676L173.367 23.1855C174.188 21.9551 175.304 20.8158 176.717 19.7676C178.175 18.6738 179.611 18.127 181.023 18.127C183.667 18.127 185.444 18.7878 186.355 20.1094C186.355 21.7044 186.105 22.8665 185.604 23.5957C185.102 24.3249 184.487 24.6895 183.758 24.6895C182.938 24.6895 182.186 24.3021 181.502 23.5273C180.818 22.7526 179.884 22.3652 178.699 22.3652C177.788 22.3652 176.922 22.6842 176.102 23.3223C175.281 23.9147 174.62 24.6895 174.119 25.6465C173.663 26.5579 173.436 27.515 173.436 28.5176V38.7715C173.436 40.0931 173.481 41.2552 173.572 42.2578C173.663 43.2604 173.8 44.1263 173.982 44.8555C174.074 45.0378 174.393 45.2428 174.939 45.4707C175.486 45.6986 176.079 45.8809 176.717 46.0176C177.4 46.1543 177.879 46.2227 178.152 46.2227C178.289 46.2227 178.38 46.4961 178.426 47.043C178.471 47.5898 178.449 47.9772 178.357 48.2051L170.975 47.8633L163.523 48.2051ZM189.432 48.2051C189.249 48.0228 189.158 47.6354 189.158 47.043C189.158 46.4961 189.249 46.2227 189.432 46.2227C189.796 46.2227 190.298 46.1543 190.936 46.0176C191.574 45.8809 192.166 45.6986 192.713 45.4707C193.26 45.2428 193.556 45.0378 193.602 44.8555C193.784 44.2174 193.898 43.4883 193.943 42.668C194.035 41.8477 194.08 40.9818 194.08 40.0703V27.1504C194.08 25.4186 193.761 24.1882 193.123 23.459C192.667 22.8665 192.12 22.502 191.482 22.3652C190.844 22.1829 190.298 22.0918 189.842 22.0918C189.386 22.0462 189.158 21.9779 189.158 21.8867C189.158 20.793 189.295 20.2233 189.568 20.1777C191.984 19.8132 193.829 19.5169 195.105 19.2891C196.382 19.0156 197.521 18.765 198.523 18.5371L199.344 18.332C199.526 18.2865 199.64 18.4688 199.686 18.8789C199.731 19.2891 199.731 19.5853 199.686 19.7676C199.594 20.679 199.503 21.5449 199.412 22.3652C199.367 23.1855 199.344 23.9603 199.344 24.6895V38.7715C199.344 40.0931 199.389 41.2552 199.48 42.2578C199.572 43.2604 199.708 44.1263 199.891 44.8555C199.982 45.0378 200.301 45.2428 200.848 45.4707C201.395 45.6986 201.987 45.8809 202.625 46.0176C203.263 46.1543 203.719 46.2227 203.992 46.2227C204.129 46.2227 204.22 46.4961 204.266 47.043C204.311 47.5898 204.288 47.9772 204.197 48.2051L196.883 47.8633L189.432 48.2051ZM196.199 10.8809C195.288 10.8809 194.49 10.5391 193.807 9.85547C193.123 9.17188 192.781 8.37435 192.781 7.46289C192.781 6.50586 193.123 5.70833 193.807 5.07031C194.49 4.38672 195.288 4.04492 196.199 4.04492C197.156 4.04492 197.954 4.38672 198.592 5.07031C199.275 5.70833 199.617 6.50586 199.617 7.46289C199.617 8.37435 199.275 9.17188 198.592 9.85547C197.954 10.5391 197.156 10.8809 196.199 10.8809ZM208.504 48.2051C208.322 48.0228 208.23 47.6354 208.23 47.043C208.23 46.4961 208.322 46.2227 208.504 46.2227C208.868 46.2227 209.37 46.1543 210.008 46.0176C210.646 45.8809 211.238 45.6986 211.785 45.4707C212.332 45.2428 212.628 45.0378 212.674 44.8555C212.856 44.2174 212.97 43.4883 213.016 42.668C213.107 41.8477 213.152 40.9818 213.152 40.0703V27.1504C213.152 25.4186 212.833 24.1882 212.195 23.459C211.74 22.9121 211.193 22.5475 210.555 22.3652C209.962 22.1829 209.415 22.0918 208.914 22.0918C208.458 22.0462 208.23 21.9779 208.23 21.8867C208.23 20.793 208.367 20.2233 208.641 20.1777C211.056 19.8132 213.016 19.4941 214.52 19.2207C216.023 18.9017 216.958 18.6966 217.322 18.6055L218.416 18.332C218.598 18.2865 218.712 18.4688 218.758 18.8789C218.803 19.2891 218.803 19.5853 218.758 19.7676C218.667 20.4056 218.598 20.9525 218.553 21.4082C218.507 21.8639 218.484 22.2285 218.484 22.502C218.484 22.6842 218.53 22.7754 218.621 22.7754C218.667 22.7754 218.735 22.7298 218.826 22.6387C219.874 21.5449 221.287 20.5195 223.064 19.5625C224.887 18.5599 226.619 18.0586 228.26 18.0586C231.45 18.0586 233.683 19.1979 234.959 21.4766C236.235 23.7552 236.873 27.4466 236.873 32.5508V38.7715C236.873 40.0931 236.919 41.2552 237.01 42.2578C237.101 43.2604 237.238 44.1263 237.42 44.8555C237.511 45.0378 237.83 45.2428 238.377 45.4707C238.924 45.6986 239.516 45.8809 240.154 46.0176C240.792 46.1543 241.248 46.2227 241.521 46.2227C241.658 46.2227 241.749 46.4961 241.795 47.043C241.84 47.5898 241.818 47.9772 241.727 48.2051L234.412 47.8633L227.234 48.2051C227.052 48.0228 226.961 47.6354 226.961 47.043C226.961 46.4961 227.052 46.2227 227.234 46.2227C227.599 46.2227 228.077 46.1543 228.67 46.0176C229.262 45.8809 229.809 45.6986 230.311 45.4707C230.812 45.2428 231.085 45.0378 231.131 44.8555C231.313 44.2174 231.427 43.4883 231.473 42.668C231.564 41.8477 231.609 40.9818 231.609 40.0703V33.2344C231.609 28.9961 231.062 26.1022 229.969 24.5527C228.875 23.0033 227.098 22.2285 224.637 22.2285C223.68 22.2285 222.723 22.502 221.766 23.0488C220.809 23.5501 220.011 24.1426 219.373 24.8262C218.735 25.5098 218.416 26.1478 218.416 26.7402V38.7715C218.416 40.0931 218.462 41.2552 218.553 42.2578C218.644 43.2604 218.781 44.1263 218.963 44.8555C219.054 45.0378 219.373 45.2428 219.92 45.4707C220.467 45.6986 221.059 45.8809 221.697 46.0176C222.335 46.1543 222.791 46.2227 223.064 46.2227C223.201 46.2227 223.292 46.4961 223.338 47.043C223.383 47.5898 223.361 47.9772 223.27 48.2051L215.955 47.8633L208.504 48.2051ZM259.705 48.4102C257.199 48.4102 254.897 47.7493 252.801 46.4277C250.704 45.1061 249.018 43.3516 247.742 41.1641C246.512 38.931 245.896 36.4473 245.896 33.7129C245.896 30.8874 246.398 28.3125 247.4 25.9883C248.449 23.6185 249.952 21.7272 251.912 20.3145C253.917 18.9017 256.333 18.1953 259.158 18.1953C264.171 18.1953 267.635 19.3574 269.549 21.6816C269.549 24.735 268.706 26.2617 267.02 26.2617C266.245 26.2617 265.652 26.1022 265.242 25.7832C264.832 25.4186 264.308 24.7806 263.67 23.8691C262.257 21.7728 260.571 20.7246 258.611 20.7246C256.743 20.7246 255.034 21.6133 253.484 23.3906C251.98 25.168 251.229 27.8112 251.229 31.3203C251.229 34.9661 252.117 37.9967 253.895 40.4121C255.717 42.8275 258.224 44.0352 261.414 44.0352C263.328 44.0352 264.923 43.7617 266.199 43.2148C267.521 42.6224 268.478 42.0983 269.07 41.6426L269.549 41.3008C269.822 41.3008 269.959 41.597 269.959 42.1895C269.959 42.5085 269.822 42.9186 269.549 43.4199C268.637 44.696 267.293 45.8581 265.516 46.9062C263.738 47.9089 261.801 48.4102 259.705 48.4102ZM273.514 48.2051C273.331 48.0228 273.24 47.6354 273.24 47.043C273.24 46.4961 273.331 46.2227 273.514 46.2227C273.878 46.2227 274.38 46.1543 275.018 46.0176C275.656 45.8809 276.248 45.6986 276.795 45.4707C277.342 45.2428 277.638 45.0378 277.684 44.8555C277.866 44.2174 277.98 43.4883 278.025 42.668C278.117 41.8477 278.162 40.9818 278.162 40.0703V27.1504C278.162 25.4186 277.843 24.1882 277.205 23.459C276.749 22.8665 276.202 22.502 275.564 22.3652C274.926 22.1829 274.38 22.0918 273.924 22.0918C273.468 22.0462 273.24 21.9779 273.24 21.8867C273.24 20.793 273.377 20.2233 273.65 20.1777C276.066 19.8132 277.911 19.5169 279.188 19.2891C280.464 19.0156 281.603 18.765 282.605 18.5371L283.426 18.332C283.608 18.2865 283.722 18.4688 283.768 18.8789C283.813 19.2891 283.813 19.5853 283.768 19.7676C283.676 20.679 283.585 21.5449 283.494 22.3652C283.449 23.1855 283.426 23.9603 283.426 24.6895V38.7715C283.426 40.0931 283.471 41.2552 283.562 42.2578C283.654 43.2604 283.79 44.1263 283.973 44.8555C284.064 45.0378 284.383 45.2428 284.93 45.4707C285.477 45.6986 286.069 45.8809 286.707 46.0176C287.345 46.1543 287.801 46.2227 288.074 46.2227C288.211 46.2227 288.302 46.4961 288.348 47.043C288.393 47.5898 288.37 47.9772 288.279 48.2051L280.965 47.8633L273.514 48.2051ZM280.281 10.8809C279.37 10.8809 278.572 10.5391 277.889 9.85547C277.205 9.17188 276.863 8.37435 276.863 7.46289C276.863 6.50586 277.205 5.70833 277.889 5.07031C278.572 4.38672 279.37 4.04492 280.281 4.04492C281.238 4.04492 282.036 4.38672 282.674 5.07031C283.357 5.70833 283.699 6.50586 283.699 7.46289C283.699 8.37435 283.357 9.17188 282.674 9.85547C282.036 10.5391 281.238 10.8809 280.281 10.8809ZM291.766 63.4492C291.583 63.2669 291.492 62.9023 291.492 62.3555C291.492 61.763 291.583 61.4668 291.766 61.4668C292.13 61.4668 292.632 61.3984 293.27 61.2617C293.908 61.125 294.5 60.9427 295.047 60.7148C295.594 60.487 295.89 60.2819 295.936 60.0996C296.118 59.4616 296.232 58.7324 296.277 57.9121C296.368 57.0918 296.414 56.2259 296.414 55.3145V27.082C296.414 25.3503 296.095 24.1198 295.457 23.3906C295.001 22.8438 294.454 22.4792 293.816 22.2969C293.224 22.1146 292.677 22.0234 292.176 22.0234C291.72 21.9779 291.492 21.9095 291.492 21.8184C291.492 20.7246 291.629 20.1549 291.902 20.1094C296.733 19.3802 299.832 18.8105 301.199 18.4004L301.678 18.2637C301.906 18.2637 301.997 18.5143 301.951 19.0156C301.906 19.4714 301.86 19.8587 301.814 20.1777L301.746 20.5879C302.202 20.2689 302.84 19.9271 303.66 19.5625C304.48 19.1979 305.346 18.8789 306.258 18.6055C307.215 18.332 308.035 18.1953 308.719 18.1953C311.818 18.1953 314.393 18.9017 316.443 20.3145C318.54 21.6816 320.089 23.4362 321.092 25.5781C322.14 27.6745 322.664 29.8164 322.664 32.0039C322.664 34.1914 322.254 36.2878 321.434 38.293C320.613 40.2526 319.497 42.0072 318.084 43.5566C316.671 45.1061 315.053 46.3366 313.23 47.248C311.453 48.1139 309.607 48.5469 307.693 48.5469C306.281 48.5469 305.21 48.4329 304.48 48.2051C303.751 48.0228 302.908 47.7038 301.951 47.248C301.769 47.4303 301.678 47.7266 301.678 48.1367V54.0156C301.678 55.3372 301.723 56.4993 301.814 57.502C301.906 58.5046 302.042 59.3704 302.225 60.0996C302.316 60.2819 302.635 60.487 303.182 60.7148C303.729 60.9427 304.321 61.125 304.959 61.2617C305.597 61.3984 306.053 61.4668 306.326 61.4668C306.463 61.4668 306.554 61.7402 306.6 62.2871C306.645 62.8796 306.622 63.2669 306.531 63.4492L299.217 63.1074L291.766 63.4492ZM307.967 45.6758C309.79 45.6758 311.339 45.1289 312.615 44.0352C313.937 42.8958 314.962 41.4375 315.691 39.6602C316.421 37.8372 316.785 35.9232 316.785 33.918C316.785 31.3659 316.307 29.1784 315.35 27.3555C314.438 25.487 313.208 24.0514 311.658 23.0488C310.109 22.0462 308.4 21.5449 306.531 21.5449C305.118 21.5449 303.956 21.9323 303.045 22.707C302.133 23.4362 301.678 24.5072 301.678 25.9199V41.3008C301.678 42.5312 302.339 43.5794 303.66 44.4453C304.982 45.2656 306.417 45.6758 307.967 45.6758ZM326.561 48.2051C326.378 48.0228 326.287 47.6354 326.287 47.043C326.287 46.4961 326.378 46.2227 326.561 46.2227C326.925 46.2227 327.426 46.1543 328.064 46.0176C328.702 45.8809 329.295 45.6986 329.842 45.4707C330.389 45.2428 330.685 45.0378 330.73 44.8555C330.913 44.2174 331.027 43.4883 331.072 42.668C331.163 41.8477 331.209 40.9818 331.209 40.0703V10.4707C331.209 8.92122 331.072 7.46289 330.799 6.0957C330.617 5.36654 329.454 5.00195 327.312 5.00195H326.697C326.424 5.00195 326.287 4.7513 326.287 4.25C326.287 3.52083 326.424 3.15625 326.697 3.15625C329.432 2.83724 331.46 2.47266 332.781 2.0625C334.103 1.65234 335.014 1.28776 335.516 0.96875L336.199 0.558594H336.336C336.518 0.558594 336.701 0.695312 336.883 0.96875C337.065 1.19661 337.179 1.42448 337.225 1.65234C336.723 3.15625 336.473 5.13867 336.473 7.59961V38.7715C336.473 40.0931 336.518 41.2552 336.609 42.2578C336.701 43.2604 336.837 44.1263 337.02 44.8555C337.111 45.0378 337.43 45.2428 337.977 45.4707C338.523 45.6986 339.116 45.8809 339.754 46.0176C340.392 46.1543 340.848 46.2227 341.121 46.2227C341.258 46.2227 341.349 46.4961 341.395 47.043C341.44 47.5898 341.417 47.9772 341.326 48.2051L334.012 47.8633L326.561 48.2051ZM358.758 48.4102C356.251 48.4102 353.95 47.7493 351.854 46.4277C349.757 45.1061 348.071 43.3516 346.795 41.1641C345.564 38.931 344.949 36.4473 344.949 33.7129C344.949 30.5228 345.542 27.7656 346.727 25.4414C347.911 23.1172 349.529 21.3398 351.58 20.1094C353.631 18.8333 355.932 18.1953 358.484 18.1953C360.581 18.1953 362.426 18.6055 364.021 19.4258C365.617 20.2005 366.847 21.2031 367.713 22.4336C368.533 23.7096 369.126 25.0085 369.49 26.3301C369.9 27.6061 370.105 28.8822 370.105 30.1582C370.105 31.0697 369.969 31.6393 369.695 31.8672C369.422 32.0495 368.898 32.1406 368.123 32.1406H350.896C350.532 32.1406 350.35 32.2546 350.35 32.4824C350.35 34.3965 350.737 36.2422 351.512 38.0195C352.286 39.7513 353.426 41.1868 354.93 42.3262C356.434 43.4655 358.279 44.0352 360.467 44.0352C362.381 44.0352 363.976 43.7617 365.252 43.2148C366.574 42.6224 367.531 42.0983 368.123 41.6426L368.602 41.3008C368.875 41.3008 369.012 41.597 369.012 42.1895C369.012 42.5085 368.875 42.9186 368.602 43.4199C367.69 44.696 366.346 45.8581 364.568 46.9062C362.791 47.9089 360.854 48.4102 358.758 48.4102ZM350.896 29.2695H364.227C364.454 29.2695 364.568 29.0417 364.568 28.5859C364.568 27.5833 364.295 26.4896 363.748 25.3047C363.247 24.0742 362.472 23.0033 361.424 22.0918C360.376 21.1803 359.054 20.7246 357.459 20.7246C356.001 20.7246 354.747 21.2259 353.699 22.2285C352.651 23.1855 351.854 24.3021 351.307 25.5781C350.76 26.8086 350.486 27.8796 350.486 28.791C350.486 29.11 350.623 29.2695 350.896 29.2695ZM383.777 48.752C382.365 48.752 381.089 48.5924 379.949 48.2734C378.81 47.9544 377.42 47.681 375.779 47.4531C375.597 46.9518 375.415 46.2682 375.232 45.4023C375.05 44.5365 374.891 43.625 374.754 42.668C374.663 41.7109 374.617 40.9362 374.617 40.3438C374.982 40.0703 375.255 39.9336 375.438 39.9336C376.121 39.9336 376.486 40.0703 376.531 40.3438C376.714 41.2552 377.169 42.1667 377.898 43.0781C378.628 43.9896 379.516 44.7643 380.564 45.4023C381.613 45.9948 382.684 46.291 383.777 46.291C385.236 46.291 386.421 45.9036 387.332 45.1289C388.289 44.3086 388.768 43.1465 388.768 41.6426C388.768 40.0475 388.152 38.7259 386.922 37.6777C385.965 36.903 385.145 36.3561 384.461 36.0371C383.823 35.6725 383.185 35.3535 382.547 35.0801C381.954 34.7611 381.202 34.3281 380.291 33.7812C376.736 31.7305 374.959 29.2923 374.959 26.4668C374.959 24.8262 375.415 23.3906 376.326 22.1602C377.238 20.8841 378.445 19.9043 379.949 19.2207C381.499 18.4915 383.139 18.127 384.871 18.127C385.372 18.127 385.942 18.1725 386.58 18.2637C387.218 18.3092 387.924 18.3776 388.699 18.4688C389.474 18.6055 390.112 18.7194 390.613 18.8105C391.115 18.9017 391.525 18.9701 391.844 19.0156C392.345 21.112 392.618 23.4362 392.664 25.9883C392.664 26.2161 392.368 26.3301 391.775 26.3301C391.137 26.3301 390.796 26.1706 390.75 25.8516C390.522 24.5755 389.861 23.3678 388.768 22.2285C387.719 21.0892 386.512 20.5195 385.145 20.5195C381.863 20.5195 380.223 21.8639 380.223 24.5527C380.223 25.2363 380.291 25.8516 380.428 26.3984C380.61 26.8997 380.997 27.3783 381.59 27.834C383.003 28.9277 384.666 30.0215 386.58 31.1152C388.54 32.209 390.158 33.2344 391.434 34.1914C393.348 35.6497 394.305 37.3587 394.305 39.3184C394.305 41.0957 393.826 42.7135 392.869 44.1719C391.912 45.5846 390.636 46.7012 389.041 47.5215C387.446 48.3418 385.691 48.752 383.777 48.752Z" fill="#544175"/>
</svg>
