<svg width="130" height="29" viewBox="0 0 130 29" fill="none" xmlns="http://www.w3.org/2000/svg">
<path d="M7.94121 22.42C6.72121 22.42 5.40121 22.25 3.98121 21.91C2.56121 21.55 1.43121 21.1 0.591211 20.56V16C0.591211 15.82 0.641211 15.67 0.741211 15.55C0.841211 15.43 1.00121 15.37 1.22121 15.37C1.54121 15.37 1.79121 15.5 1.97121 15.76C2.17121 16 2.38121 16.48 2.60121 17.2L3.11121 18.97C3.57121 19.29 4.22121 19.55 5.06121 19.75C5.90121 19.93 6.74121 20.02 7.58121 20.02C8.84121 20.02 9.90121 19.8 10.7612 19.36C11.6412 18.9 12.0812 18.18 12.0812 17.2C12.0812 16.54 11.9212 15.99 11.6012 15.55C11.3012 15.09 10.8112 14.66 10.1312 14.26C9.45121 13.86 8.44121 13.37 7.10121 12.79C5.04121 11.89 3.45121 10.95 2.33121 9.97C1.23121 8.99 0.681211 7.73 0.681211 6.19C0.681211 4.97 1.01121 3.95 1.67121 3.13C2.33121 2.31 3.20121 1.71 4.28121 1.33C5.38121 0.929999 6.56121 0.729998 7.82121 0.729998C9.12121 0.729998 10.3912 0.929999 11.6312 1.33C12.8912 1.71 13.9312 2.22 14.7512 2.86V7.09C14.7512 7.51 14.5412 7.72 14.1212 7.72C13.8012 7.72 13.5412 7.6 13.3412 7.36C13.1612 7.12 12.9612 6.64 12.7412 5.92L12.2312 4.15C11.2112 3.47 9.84121 3.13 8.12121 3.13C7.02121 3.13 6.13121 3.35 5.45121 3.79C4.77121 4.21 4.43121 4.86 4.43121 5.74C4.43121 6.32 4.61121 6.82 4.97121 7.24C5.35121 7.66 5.86121 8.05 6.50121 8.41C7.14121 8.75 8.10121 9.21 9.38121 9.79L10.1612 10.15C11.4012 10.73 12.4212 11.3 13.2212 11.86C14.0212 12.4 14.6512 13.08 15.1112 13.9C15.5912 14.7 15.8312 15.67 15.8312 16.81C15.8312 18.69 15.1012 20.1 13.6412 21.04C12.1812 21.96 10.2812 22.42 7.94121 22.42ZM21.7079 5.14C21.0479 5.14 20.4979 4.93 20.0579 4.51C19.6179 4.09 19.3979 3.53 19.3979 2.83C19.3979 2.13 19.6179 1.57 20.0579 1.15C20.4979 0.729999 21.0479 0.519999 21.7079 0.519999C22.3679 0.519999 22.9179 0.729999 23.3579 1.15C23.8179 1.57 24.0479 2.13 24.0479 2.83C24.0479 3.53 23.8179 4.09 23.3579 4.51C22.9179 4.93 22.3679 5.14 21.7079 5.14ZM18.6479 22C18.1879 22 17.9579 21.72 17.9579 21.16C17.9579 20.36 18.4879 19.96 19.5479 19.96H20.0279V9.31H18.6479C18.1879 9.31 17.9579 9.03 17.9579 8.47C17.9579 8.07 18.0979 7.77 18.3779 7.57C18.6579 7.37 19.0479 7.27 19.5479 7.27H23.5379V19.96L24.7379 20.44C25.1379 20.62 25.4179 20.79 25.5779 20.95C25.7379 21.09 25.8179 21.27 25.8179 21.49C25.8179 21.83 25.6679 22 25.3679 22H18.6479ZM28.1143 22C27.6543 22 27.4243 21.72 27.4243 21.16C27.4243 20.36 27.9543 19.96 29.0143 19.96H29.4943V9.31H28.1143C27.6543 9.31 27.4243 9.03 27.4243 8.47C27.4243 8.07 27.5643 7.77 27.8443 7.57C28.1243 7.37 28.5143 7.27 29.0143 7.27H32.8543V9.19H32.9443C34.6043 7.71 36.3043 6.97 38.0443 6.97C39.4843 6.97 40.6643 7.39 41.5843 8.23C42.5243 9.05 42.9943 10.18 42.9943 11.62V19.96L44.1643 20.44C44.5643 20.62 44.8443 20.79 45.0043 20.95C45.1643 21.09 45.2443 21.27 45.2443 21.49C45.2443 21.83 45.0943 22 44.7943 22H38.0743C37.6143 22 37.3843 21.72 37.3843 21.16C37.3843 20.36 37.9143 19.96 38.9743 19.96H39.4843V11.92C39.4843 11.08 39.2643 10.43 38.8243 9.97C38.3843 9.49 37.7343 9.25 36.8743 9.25C36.2143 9.25 35.5443 9.44 34.8643 9.82C34.1843 10.18 33.5643 10.66 33.0043 11.26V19.96L34.2043 20.44C34.6043 20.62 34.8843 20.79 35.0443 20.95C35.2043 21.09 35.2843 21.27 35.2843 21.49C35.2843 21.83 35.1343 22 34.8343 22H28.1143ZM54.4954 22.42C52.9754 22.42 51.6254 22.11 50.4454 21.49C49.2654 20.87 48.3454 19.98 47.6854 18.82C47.0254 17.64 46.6954 16.25 46.6954 14.65C46.6954 13.01 47.0254 11.61 47.6854 10.45C48.3654 9.29 49.2654 8.42 50.3854 7.84C51.5054 7.26 52.7454 6.97 54.1054 6.97C55.1854 6.97 56.2054 7.15 57.1654 7.51C58.1454 7.87 58.9254 8.3 59.5054 8.8V11.92C59.5054 12.3 59.2754 12.49 58.8154 12.49C58.2354 12.49 57.8654 12.11 57.7054 11.35L57.3754 9.94C57.0354 9.7 56.6154 9.51 56.1154 9.37C55.6354 9.23 55.1154 9.16 54.5554 9.16C53.2754 9.16 52.2254 9.63 51.4054 10.57C50.6054 11.51 50.2054 12.88 50.2054 14.68C50.2054 16.5 50.6254 17.89 51.4654 18.85C52.3054 19.79 53.4054 20.26 54.7654 20.26C55.4254 20.26 56.0054 20.18 56.5054 20.02C57.0254 19.84 57.5454 19.56 58.0654 19.18C58.3854 18.94 58.6554 18.82 58.8754 18.82C59.1154 18.82 59.3154 18.92 59.4754 19.12C59.6554 19.3 59.7454 19.54 59.7454 19.84C59.7454 20.38 59.3454 20.89 58.5454 21.37C57.3854 22.07 56.0354 22.42 54.4954 22.42ZM69.4068 22.42C67.9468 22.42 66.6268 22.13 65.4468 21.55C64.2868 20.97 63.3668 20.11 62.6868 18.97C62.0268 17.83 61.6968 16.45 61.6968 14.83C61.6968 13.19 62.0068 11.78 62.6268 10.6C63.2668 9.42 64.1368 8.52 65.2368 7.9C66.3568 7.28 67.6268 6.97 69.0468 6.97C70.3668 6.97 71.5268 7.23 72.5268 7.75C73.5468 8.27 74.3368 9.01 74.8968 9.97C75.4768 10.93 75.7668 12.05 75.7668 13.33C75.7668 13.69 75.7168 14.09 75.6168 14.53C75.5168 14.97 75.3868 15.34 75.2268 15.64H65.2368C65.2368 17.16 65.6568 18.31 66.4968 19.09C67.3568 19.87 68.3868 20.26 69.5868 20.26C70.2868 20.26 70.8968 20.18 71.4168 20.02C71.9568 19.84 72.5568 19.56 73.2168 19.18C73.2968 19.14 73.4268 19.07 73.6068 18.97C73.8068 18.85 73.9668 18.79 74.0868 18.79C74.3468 18.79 74.5668 18.89 74.7468 19.09C74.9268 19.29 75.0168 19.54 75.0168 19.84C75.0168 20.12 74.9268 20.37 74.7468 20.59C74.5668 20.81 74.2768 21.04 73.8768 21.28C72.5568 22.04 71.0668 22.42 69.4068 22.42ZM72.1068 13.48C72.2068 13.22 72.2568 12.92 72.2568 12.58C72.2568 11.5 71.9668 10.66 71.3868 10.06C70.8068 9.44 70.0168 9.13 69.0168 9.13C67.9768 9.13 67.1068 9.52 66.4068 10.3C65.7068 11.08 65.3168 12.14 65.2368 13.48H72.1068ZM78.6221 22C78.1621 22 77.9321 21.72 77.9321 21.16C77.9321 20.36 78.4621 19.96 79.5221 19.96H80.0021V9.31H78.6221C78.1621 9.31 77.9321 9.03 77.9321 8.47C77.9321 8.07 78.0721 7.77 78.3521 7.57C78.6321 7.37 79.0221 7.27 79.5221 7.27H83.3621V10.3H83.4521C84.1721 9.36 84.9921 8.57 85.9121 7.93C86.8321 7.29 87.7121 6.97 88.5521 6.97C89.1321 6.97 89.5821 7.13 89.9021 7.45C90.2221 7.77 90.3821 8.18 90.3821 8.68C90.3821 8.98 90.3221 9.28 90.2021 9.58C90.1021 9.86 89.9621 10.09 89.7821 10.27C87.4821 10.27 85.3921 11.03 83.5121 12.55V19.96L84.7121 20.44C85.1121 20.62 85.3921 20.79 85.5521 20.95C85.7121 21.09 85.7921 21.27 85.7921 21.49C85.7921 21.83 85.6421 22 85.3421 22H78.6221ZM95.3603 5.14C94.7003 5.14 94.1503 4.93 93.7103 4.51C93.2703 4.09 93.0503 3.53 93.0503 2.83C93.0503 2.13 93.2703 1.57 93.7103 1.15C94.1503 0.729999 94.7003 0.519999 95.3603 0.519999C96.0203 0.519999 96.5703 0.729999 97.0103 1.15C97.4703 1.57 97.7003 2.13 97.7003 2.83C97.7003 3.53 97.4703 4.09 97.0103 4.51C96.5703 4.93 96.0203 5.14 95.3603 5.14ZM92.3003 22C91.8403 22 91.6103 21.72 91.6103 21.16C91.6103 20.36 92.1403 19.96 93.2003 19.96H93.6803V9.31H92.3003C91.8403 9.31 91.6103 9.03 91.6103 8.47C91.6103 8.07 91.7503 7.77 92.0303 7.57C92.3103 7.37 92.7003 7.27 93.2003 7.27H97.1903V19.96L98.3903 20.44C98.7903 20.62 99.0703 20.79 99.2303 20.95C99.3903 21.09 99.4703 21.27 99.4703 21.49C99.4703 21.83 99.3203 22 99.0203 22H92.3003ZM107.303 22.42C106.023 22.42 104.953 22.05 104.093 21.31C103.253 20.57 102.833 19.54 102.833 18.22V9.58H100.793C100.553 9.58 100.363 9.5 100.223 9.34C100.103 9.18 100.043 8.96 100.043 8.68C100.043 8.26 100.183 7.94 100.463 7.72C100.763 7.5 101.153 7.39 101.633 7.39H102.893L103.433 4.03H106.343V7.39H110.963C111.103 7.39 111.213 7.43 111.293 7.51C111.393 7.59 111.443 7.7 111.443 7.84C111.443 8.16 111.313 8.41 111.053 8.59C110.813 8.75 110.403 8.89 109.823 9.01L106.343 9.58V18.43C106.343 19.03 106.493 19.48 106.793 19.78C107.113 20.08 107.543 20.23 108.083 20.23C108.723 20.23 109.323 20.01 109.883 19.57C109.943 19.53 110.043 19.45 110.183 19.33C110.343 19.19 110.513 19.12 110.693 19.12C110.953 19.12 111.163 19.21 111.323 19.39C111.503 19.55 111.593 19.77 111.593 20.05C111.593 20.55 111.203 21.05 110.423 21.55C109.503 22.13 108.463 22.42 107.303 22.42ZM115.6 28.81C115.04 28.81 114.57 28.65 114.19 28.33C113.81 28.03 113.62 27.62 113.62 27.1C113.62 26.68 113.74 26.29 113.98 25.93C115.3 25.93 116.34 25.72 117.1 25.3C117.88 24.9 118.53 24.12 119.05 22.96L119.44 22L114.04 9.31H112.9C112.44 9.31 112.21 9.03 112.21 8.47C112.21 8.07 112.35 7.77 112.63 7.57C112.91 7.37 113.29 7.27 113.77 7.27H119.59C119.91 7.27 120.07 7.44 120.07 7.78C120.07 8.2 119.71 8.55 118.99 8.83L117.67 9.34L121 17.44C121.08 17.62 121.13 17.86 121.15 18.16C121.17 18.44 121.18 18.62 121.18 18.7H121.33C121.33 18.6 121.34 18.41 121.36 18.13C121.4 17.85 121.46 17.62 121.54 17.44L124.99 9.31H123.37C122.91 9.31 122.68 9.03 122.68 8.47C122.68 8.07 122.82 7.77 123.1 7.57C123.38 7.37 123.76 7.27 124.24 7.27H129.34C129.66 7.27 129.82 7.44 129.82 7.78C129.82 8 129.72 8.19 129.52 8.35C129.34 8.51 129.08 8.67 128.74 8.83L127.57 9.34L121.93 22.57C121.07 24.57 120.14 26.11 119.14 27.19C118.16 28.27 116.98 28.81 115.6 28.81Z" fill="#1E1E1E"/>
</svg>
