<svg width="65" height="23" viewBox="0 0 65 23" fill="none" xmlns="http://www.w3.org/2000/svg">
<path d="M8.18242 22.42C6.96242 22.42 5.64242 22.25 4.22242 21.91C2.80242 21.55 1.67242 21.1 0.832422 20.56V16C0.832422 15.82 0.882422 15.67 0.982422 15.55C1.08242 15.43 1.24242 15.37 1.46242 15.37C1.78242 15.37 2.03242 15.5 2.21242 15.76C2.41242 16 2.62242 16.48 2.84242 17.2L3.35242 18.97C3.81242 19.29 4.46242 19.55 5.30242 19.75C6.14242 19.93 6.98242 20.02 7.82242 20.02C9.08242 20.02 10.1424 19.8 11.0024 19.36C11.8824 18.9 12.3224 18.18 12.3224 17.2C12.3224 16.54 12.1624 15.99 11.8424 15.55C11.5424 15.09 11.0524 14.66 10.3724 14.26C9.69242 13.86 8.68242 13.37 7.34242 12.79C5.28242 11.89 3.69242 10.95 2.57242 9.97C1.47242 8.99 0.922422 7.73 0.922422 6.19C0.922422 4.97 1.25242 3.95 1.91242 3.13C2.57242 2.31 3.44242 1.71 4.52242 1.33C5.62242 0.929999 6.80242 0.729998 8.06242 0.729998C9.36242 0.729998 10.6324 0.929999 11.8724 1.33C13.1324 1.71 14.1724 2.22 14.9924 2.86V7.09C14.9924 7.51 14.7824 7.72 14.3624 7.72C14.0424 7.72 13.7824 7.6 13.5824 7.36C13.4024 7.12 13.2024 6.64 12.9824 5.92L12.4724 4.15C11.4524 3.47 10.0824 3.13 8.36242 3.13C7.26242 3.13 6.37242 3.35 5.69242 3.79C5.01242 4.21 4.67242 4.86 4.67242 5.74C4.67242 6.32 4.85242 6.82 5.21242 7.24C5.59242 7.66 6.10242 8.05 6.74242 8.41C7.38242 8.75 8.34242 9.21 9.62242 9.79L10.4024 10.15C11.6424 10.73 12.6624 11.3 13.4624 11.86C14.2624 12.4 14.8924 13.08 15.3524 13.9C15.8324 14.7 16.0724 15.67 16.0724 16.81C16.0724 18.69 15.3424 20.1 13.8824 21.04C12.4224 21.96 10.5224 22.42 8.18242 22.42ZM19.4221 22C18.9621 22 18.7321 21.72 18.7321 21.16C18.7321 20.36 19.2621 19.96 20.3221 19.96H20.8021V2.74H19.4221C18.9621 2.74 18.7321 2.46 18.7321 1.9C18.7321 1.5 18.8721 1.2 19.1521 0.999999C19.4321 0.799999 19.8221 0.699999 20.3221 0.699999H24.3121V19.96L25.4821 20.44C25.8821 20.6 26.1621 20.76 26.3221 20.92C26.4821 21.08 26.5621 21.27 26.5621 21.49C26.5621 21.83 26.4021 22 26.0821 22H19.4221ZM24.3121 14.38L29.6821 9.43H27.8821C27.6421 9.43 27.4521 9.35 27.3121 9.19C27.1921 9.03 27.1321 8.81 27.1321 8.53C27.1321 8.11 27.2821 7.8 27.5821 7.6C27.8821 7.38 28.2921 7.27 28.8121 7.27H34.3921C34.7921 7.27 34.9921 7.51 34.9921 7.99C34.9921 8.47 34.5721 8.85 33.7321 9.13L32.6821 9.43L28.0621 13.81L33.2821 19.93L34.6921 20.35C35.1121 20.49 35.4221 20.65 35.6221 20.83C35.8221 20.99 35.9221 21.2 35.9221 21.46C35.9221 21.82 35.7521 22 35.4121 22H30.4621L24.3121 14.38ZM41.2851 5.14C40.6251 5.14 40.0751 4.93 39.6351 4.51C39.1951 4.09 38.9751 3.53 38.9751 2.83C38.9751 2.13 39.1951 1.57 39.6351 1.15C40.0751 0.729999 40.6251 0.519999 41.2851 0.519999C41.9451 0.519999 42.4951 0.729999 42.9351 1.15C43.3951 1.57 43.6251 2.13 43.6251 2.83C43.6251 3.53 43.3951 4.09 42.9351 4.51C42.4951 4.93 41.9451 5.14 41.2851 5.14ZM38.2251 22C37.7651 22 37.5351 21.72 37.5351 21.16C37.5351 20.36 38.0651 19.96 39.1251 19.96H39.6051V9.31H38.2251C37.7651 9.31 37.5351 9.03 37.5351 8.47C37.5351 8.07 37.6751 7.77 37.9551 7.57C38.2351 7.37 38.6251 7.27 39.1251 7.27H43.1151V19.96L44.3151 20.44C44.7151 20.62 44.9951 20.79 45.1551 20.95C45.3151 21.09 45.3951 21.27 45.3951 21.49C45.3951 21.83 45.2451 22 44.9451 22H38.2251ZM47.8415 22C47.3815 22 47.1515 21.72 47.1515 21.16C47.1515 20.36 47.6815 19.96 48.7415 19.96H49.2215V2.74H47.8415C47.3815 2.74 47.1515 2.46 47.1515 1.9C47.1515 1.5 47.2915 1.2 47.5715 0.999999C47.8515 0.799999 48.2415 0.699999 48.7415 0.699999H52.7315V19.96L53.9315 20.44C54.3315 20.62 54.6115 20.79 54.7715 20.95C54.9315 21.09 55.0115 21.27 55.0115 21.49C55.0115 21.83 54.8615 22 54.5615 22H47.8415ZM57.7145 22C57.2545 22 57.0245 21.72 57.0245 21.16C57.0245 20.36 57.5545 19.96 58.6145 19.96H59.0945V2.74H57.7145C57.2545 2.74 57.0245 2.46 57.0245 1.9C57.0245 1.5 57.1645 1.2 57.4445 0.999999C57.7245 0.799999 58.1145 0.699999 58.6145 0.699999H62.6045V19.96L63.8045 20.44C64.2045 20.62 64.4845 20.79 64.6445 20.95C64.8045 21.09 64.8845 21.27 64.8845 21.49C64.8845 21.83 64.7345 22 64.4345 22H57.7145Z" fill="#1E1E1E"/>
</svg>
