<svg width="120" height="23" viewBox="0 0 120 23" fill="none" xmlns="http://www.w3.org/2000/svg">
<path d="M2.83805 3.31H1.39805C1.15805 3.31 0.968047 3.23 0.828047 3.07C0.708047 2.91 0.648047 2.69 0.648047 2.41C0.648047 1.99 0.798047 1.68 1.09805 1.48C1.39805 1.26 1.79805 1.15 2.29805 1.15H8.86805C9.18805 1.15 9.34805 1.32 9.34805 1.66C9.34805 1.96 9.23805 2.21 9.01805 2.41C8.79805 2.61 8.45805 2.77 7.99805 2.89L6.58805 3.31L10.728 17.14C10.848 17.58 10.938 18.05 10.998 18.55C11.078 19.05 11.128 19.37 11.148 19.51H11.268C11.288 19.37 11.328 19.05 11.388 18.55C11.448 18.05 11.538 17.58 11.658 17.14L15.918 1.15H19.818L24.498 17.14C24.618 17.58 24.708 18.05 24.768 18.55C24.848 19.05 24.898 19.37 24.918 19.51H25.038C25.058 19.37 25.098 19.05 25.158 18.55C25.218 18.05 25.308 17.58 25.428 17.14L29.268 3.31H27.318C27.078 3.31 26.888 3.23 26.748 3.07C26.628 2.91 26.568 2.69 26.568 2.41C26.568 2.01 26.718 1.7 27.018 1.48C27.318 1.26 27.728 1.15 28.248 1.15H34.068C34.408 1.15 34.578 1.32 34.578 1.66C34.578 2.12 34.248 2.48 33.588 2.74L32.058 3.31L26.718 22H22.218L18.018 7.54C17.878 7.02 17.768 6.43 17.688 5.77C17.608 5.09 17.568 4.65 17.568 4.45H17.418C17.398 4.65 17.348 5.09 17.268 5.77C17.188 6.43 17.088 7.02 16.968 7.54L13.098 22H8.59805L2.83805 3.31ZM38.3456 5.14C37.6856 5.14 37.1356 4.93 36.6956 4.51C36.2556 4.09 36.0356 3.53 36.0356 2.83C36.0356 2.13 36.2556 1.57 36.6956 1.15C37.1356 0.729999 37.6856 0.519999 38.3456 0.519999C39.0056 0.519999 39.5556 0.729999 39.9956 1.15C40.4556 1.57 40.6856 2.13 40.6856 2.83C40.6856 3.53 40.4556 4.09 39.9956 4.51C39.5556 4.93 39.0056 5.14 38.3456 5.14ZM35.2856 22C34.8256 22 34.5956 21.72 34.5956 21.16C34.5956 20.36 35.1256 19.96 36.1856 19.96H36.6656V9.31H35.2856C34.8256 9.31 34.5956 9.03 34.5956 8.47C34.5956 8.07 34.7356 7.77 35.0156 7.57C35.2956 7.37 35.6856 7.27 36.1856 7.27H40.1756V19.96L41.3756 20.44C41.7756 20.62 42.0556 20.79 42.2156 20.95C42.3756 21.09 42.4556 21.27 42.4556 21.49C42.4556 21.83 42.3056 22 42.0056 22H35.2856ZM49.582 22.42C48.522 22.42 47.452 22.26 46.372 21.94C45.312 21.62 44.492 21.24 43.912 20.8V17.56C43.912 17.4 43.962 17.26 44.062 17.14C44.182 17.02 44.352 16.96 44.572 16.96C45.132 16.96 45.512 17.35 45.712 18.13L46.012 19.42C46.332 19.66 46.792 19.86 47.392 20.02C47.992 20.16 48.612 20.23 49.252 20.23C51.132 20.23 52.072 19.7 52.072 18.64C52.072 18.24 51.952 17.91 51.712 17.65C51.472 17.37 51.142 17.12 50.722 16.9C50.302 16.68 49.472 16.28 48.232 15.7C46.692 14.98 45.592 14.29 44.932 13.63C44.292 12.95 43.972 12.09 43.972 11.05C43.972 9.77 44.502 8.77 45.562 8.05C46.622 7.33 47.942 6.97 49.522 6.97C50.602 6.97 51.632 7.16 52.612 7.54C53.612 7.9 54.392 8.32 54.952 8.8V11.89C54.952 12.05 54.892 12.18 54.772 12.28C54.672 12.38 54.512 12.43 54.292 12.43C53.992 12.43 53.752 12.34 53.572 12.16C53.392 11.96 53.252 11.67 53.152 11.29L52.822 9.94C52.482 9.7 52.062 9.51 51.562 9.37C51.082 9.23 50.562 9.16 50.002 9.16C49.262 9.16 48.652 9.29 48.172 9.55C47.712 9.81 47.482 10.22 47.482 10.78C47.482 11.12 47.572 11.41 47.752 11.65C47.952 11.89 48.242 12.12 48.622 12.34C49.002 12.56 49.632 12.88 50.512 13.3L51.502 13.78C52.982 14.5 54.032 15.19 54.652 15.85C55.272 16.49 55.582 17.35 55.582 18.43C55.582 19.81 55.002 20.82 53.842 21.46C52.702 22.1 51.282 22.42 49.582 22.42ZM64.4902 22.42C63.2302 22.42 62.0802 22.15 61.0402 21.61C60.0202 21.05 59.1902 20.2 58.5502 19.06C57.9302 17.92 57.6202 16.5 57.6202 14.8C57.6202 13.22 57.9402 11.84 58.5802 10.66C59.2402 9.46 60.1202 8.55 61.2202 7.93C62.3402 7.29 63.5902 6.97 64.9702 6.97C66.3502 6.97 67.6602 7.31 68.9002 7.99V2.74H67.4902C67.0302 2.74 66.8002 2.46 66.8002 1.9C66.8002 1.5 66.9402 1.2 67.2202 0.999999C67.5202 0.799999 67.9102 0.699999 68.3902 0.699999H72.3202V19.96L73.4302 20.44C73.8302 20.62 74.1102 20.79 74.2702 20.95C74.4302 21.09 74.5102 21.27 74.5102 21.49C74.5102 21.83 74.3602 22 74.0602 22H68.9902V20.38H68.8702C68.4102 21 67.8002 21.5 67.0402 21.88C66.3002 22.24 65.4502 22.42 64.4902 22.42ZM65.3302 20.26C66.3502 20.26 67.1902 19.95 67.8502 19.33C68.5102 18.71 68.8402 17.89 68.8402 16.87V10.21C68.4002 9.89 67.8902 9.63 67.3102 9.43C66.7302 9.23 66.1502 9.13 65.5702 9.13C64.2902 9.13 63.2302 9.62 62.3902 10.6C61.5502 11.58 61.1302 12.97 61.1302 14.77C61.1302 16.57 61.5002 17.94 62.2402 18.88C63.0002 19.8 64.0302 20.26 65.3302 20.26ZM82.9605 22.42C81.5605 22.42 80.3005 22.13 79.1805 21.55C78.0605 20.97 77.1705 20.1 76.5105 18.94C75.8705 17.78 75.5505 16.36 75.5505 14.68C75.5505 13 75.8705 11.59 76.5105 10.45C77.1705 9.29 78.0605 8.42 79.1805 7.84C80.3005 7.26 81.5605 6.97 82.9605 6.97C84.3605 6.97 85.6105 7.26 86.7105 7.84C87.8305 8.42 88.7105 9.29 89.3505 10.45C90.0105 11.59 90.3405 13 90.3405 14.68C90.3405 16.36 90.0105 17.78 89.3505 18.94C88.7105 20.1 87.8305 20.97 86.7105 21.55C85.6105 22.13 84.3605 22.42 82.9605 22.42ZM82.9605 20.26C84.2005 20.26 85.1505 19.78 85.8105 18.82C86.4905 17.86 86.8305 16.48 86.8305 14.68C86.8305 12.9 86.4905 11.53 85.8105 10.57C85.1505 9.61 84.2005 9.13 82.9605 9.13C81.7205 9.13 80.7605 9.61 80.0805 10.57C79.4205 11.53 79.0905 12.9 79.0905 14.68C79.0905 16.48 79.4205 17.86 80.0805 18.82C80.7605 19.78 81.7205 20.26 82.9605 20.26ZM92.9454 22C92.4854 22 92.2554 21.72 92.2554 21.16C92.2554 20.36 92.7854 19.96 93.8454 19.96H94.3254V9.31H92.9454C92.4854 9.31 92.2554 9.03 92.2554 8.47C92.2554 8.07 92.3954 7.77 92.6754 7.57C92.9554 7.37 93.3454 7.27 93.8454 7.27H97.6854V9.16H97.7754C99.4954 7.7 101.155 6.97 102.755 6.97C103.715 6.97 104.555 7.18 105.275 7.6C105.995 8 106.535 8.59 106.895 9.37C108.655 7.77 110.425 6.97 112.205 6.97C113.565 6.97 114.675 7.37 115.535 8.17C116.415 8.97 116.855 10.08 116.855 11.5V19.99L118.025 20.44C118.385 20.58 118.645 20.73 118.805 20.89C118.965 21.05 119.045 21.25 119.045 21.49C119.045 21.83 118.885 22 118.565 22H112.025C111.565 22 111.335 21.72 111.335 21.16C111.335 20.36 111.865 19.96 112.925 19.96H113.345V11.83C113.345 10.11 112.565 9.25 111.005 9.25C110.365 9.25 109.725 9.43 109.085 9.79C108.445 10.13 107.865 10.56 107.345 11.08V19.99L108.545 20.44C108.905 20.58 109.165 20.73 109.325 20.89C109.485 21.05 109.565 21.25 109.565 21.49C109.565 21.83 109.405 22 109.085 22H102.545C102.085 22 101.855 21.72 101.855 21.16C101.855 20.36 102.385 19.96 103.445 19.96H103.835V11.83C103.835 10.11 103.055 9.25 101.495 9.25C100.855 9.25 100.215 9.43 99.5754 9.79C98.9554 10.13 98.3754 10.57 97.8354 11.11V19.99L99.0354 20.44C99.3954 20.58 99.6554 20.73 99.8154 20.89C99.9754 21.05 100.055 21.25 100.055 21.49C100.055 21.83 99.8954 22 99.5754 22H92.9454Z" fill="#1E1E1E"/>
</svg>
