<svg width="83" height="23" viewBox="0 0 83 23" fill="none" xmlns="http://www.w3.org/2000/svg">
<path d="M2.42887 3.31H0.988867C0.748867 3.31 0.558867 3.23 0.418867 3.07C0.298867 2.91 0.238867 2.69 0.238867 2.41C0.238867 1.99 0.388867 1.68 0.688867 1.48C0.988867 1.26 1.38887 1.15 1.88887 1.15H8.45887C8.77887 1.15 8.93887 1.32 8.93887 1.66C8.93887 1.96 8.82887 2.21 8.60887 2.41C8.38887 2.61 8.04887 2.77 7.58887 2.89L6.17887 3.31L10.3189 17.14C10.4389 17.58 10.5289 18.05 10.5889 18.55C10.6689 19.05 10.7189 19.37 10.7389 19.51H10.8589C10.8789 19.37 10.9189 19.05 10.9789 18.55C11.0389 18.05 11.1289 17.58 11.2489 17.14L15.5089 1.15H19.4089L24.0889 17.14C24.2089 17.58 24.2989 18.05 24.3589 18.55C24.4389 19.05 24.4889 19.37 24.5089 19.51H24.6289C24.6489 19.37 24.6889 19.05 24.7489 18.55C24.8089 18.05 24.8989 17.58 25.0189 17.14L28.8589 3.31H26.9089C26.6689 3.31 26.4789 3.23 26.3389 3.07C26.2189 2.91 26.1589 2.69 26.1589 2.41C26.1589 2.01 26.3089 1.7 26.6089 1.48C26.9089 1.26 27.3189 1.15 27.8389 1.15H33.6589C33.9989 1.15 34.1689 1.32 34.1689 1.66C34.1689 2.12 33.8389 2.48 33.1789 2.74L31.6489 3.31L26.3089 22H21.8089L17.6089 7.54C17.4689 7.02 17.3589 6.43 17.2789 5.77C17.1989 5.09 17.1589 4.65 17.1589 4.45H17.0089C16.9889 4.65 16.9389 5.09 16.8589 5.77C16.7789 6.43 16.6789 7.02 16.5589 7.54L12.6889 22H8.18887L2.42887 3.31ZM42.7076 22.42C41.3076 22.42 40.0476 22.13 38.9276 21.55C37.8076 20.97 36.9176 20.1 36.2576 18.94C35.6176 17.78 35.2976 16.36 35.2976 14.68C35.2976 13 35.6176 11.59 36.2576 10.45C36.9176 9.29 37.8076 8.42 38.9276 7.84C40.0476 7.26 41.3076 6.97 42.7076 6.97C44.1076 6.97 45.3576 7.26 46.4576 7.84C47.5776 8.42 48.4576 9.29 49.0976 10.45C49.7576 11.59 50.0876 13 50.0876 14.68C50.0876 16.36 49.7576 17.78 49.0976 18.94C48.4576 20.1 47.5776 20.97 46.4576 21.55C45.3576 22.13 44.1076 22.42 42.7076 22.42ZM42.7076 20.26C43.9476 20.26 44.8976 19.78 45.5576 18.82C46.2376 17.86 46.5776 16.48 46.5776 14.68C46.5776 12.9 46.2376 11.53 45.5576 10.57C44.8976 9.61 43.9476 9.13 42.7076 9.13C41.4676 9.13 40.5076 9.61 39.8276 10.57C39.1676 11.53 38.8376 12.9 38.8376 14.68C38.8376 16.48 39.1676 17.86 39.8276 18.82C40.5076 19.78 41.4676 20.26 42.7076 20.26ZM52.3995 22C51.9395 22 51.7095 21.72 51.7095 21.16C51.7095 20.36 52.2395 19.96 53.2995 19.96H53.7795V9.31H52.3995C51.9395 9.31 51.7095 9.03 51.7095 8.47C51.7095 8.07 51.8495 7.77 52.1295 7.57C52.4095 7.37 52.7995 7.27 53.2995 7.27H57.1395V10.3H57.2295C57.9495 9.36 58.7695 8.57 59.6895 7.93C60.6095 7.29 61.4895 6.97 62.3295 6.97C62.9095 6.97 63.3595 7.13 63.6795 7.45C63.9995 7.77 64.1595 8.18 64.1595 8.68C64.1595 8.98 64.0995 9.28 63.9795 9.58C63.8795 9.86 63.7395 10.09 63.5595 10.27C61.2595 10.27 59.1695 11.03 57.2895 12.55V19.96L58.4895 20.44C58.8895 20.62 59.1695 20.79 59.3295 20.95C59.4895 21.09 59.5695 21.27 59.5695 21.49C59.5695 21.83 59.4195 22 59.1195 22H52.3995ZM65.8782 22C65.4182 22 65.1882 21.72 65.1882 21.16C65.1882 20.36 65.7182 19.96 66.7782 19.96H67.2582V2.74H65.8782C65.4182 2.74 65.1882 2.46 65.1882 1.9C65.1882 1.5 65.3282 1.2 65.6082 0.999999C65.8882 0.799999 66.2782 0.699999 66.7782 0.699999H70.7682V19.96L71.9382 20.44C72.3382 20.6 72.6182 20.76 72.7782 20.92C72.9382 21.08 73.0182 21.27 73.0182 21.49C73.0182 21.83 72.8582 22 72.5382 22H65.8782ZM70.7682 14.38L76.1382 9.43H74.3382C74.0982 9.43 73.9082 9.35 73.7682 9.19C73.6482 9.03 73.5882 8.81 73.5882 8.53C73.5882 8.11 73.7382 7.8 74.0382 7.6C74.3382 7.38 74.7482 7.27 75.2682 7.27H80.8482C81.2482 7.27 81.4482 7.51 81.4482 7.99C81.4482 8.47 81.0282 8.85 80.1882 9.13L79.1382 9.43L74.5182 13.81L79.7382 19.93L81.1482 20.35C81.5682 20.49 81.8782 20.65 82.0782 20.83C82.2782 20.99 82.3782 21.2 82.3782 21.46C82.3782 21.82 82.2082 22 81.8682 22H76.9182L70.7682 14.38Z" fill="#1E1E1E"/>
</svg>
